<svg id="Layer_1" data-name="Layer 1" xmlns="http://www.w3.org/2000/svg" viewBox="0 0 148.88 144.49"><title>Untitled-3</title><path d="M141.27,50.66c-2.34-7.33-2-16.07-6.38-22.18s-12.89-8.74-19-13.28S104.84,3.34,97.49.94c-7-2.31-15.24.65-23,.65S58.66-1.41,51.7.83c-7.27,2.35-12.14,9.64-18.21,14S18.85,21.8,14.34,28,10.1,43,7.71,50.37C5.42,57.46,0,64.37,0,72.24S5.39,86.82,7.62,93.83C10,101.16,9.62,109.9,14,116s12.89,8.74,19,13.28,11,11.86,18.35,14.26c7,2.31,15.24-.65,23-.65s15.78,3,22.74.75c7.28-2.34,12.14-9.63,18.21-14s14.64-6.92,19.15-13.13,4.24-15,6.63-22.37c2.29-7.09,7.71-14,7.71-21.88S143.5,57.67,141.27,50.66ZM74.15,140.05a68,68,0,1,1,68-68A68,68,0,0,1,74.15,140.05ZM55.54,68.15c-.48.61-.95,1.23-1.37,1.88C54.59,69.38,55.06,68.76,55.54,68.15Zm61.31-5-.54-.76,2.75-.48a48.34,48.34,0,0,0-1.47-5.11l-3.75,2.13-.72-1,4.4-1.32a48.25,48.25,0,0,0-2.11-5L111,54.86l-.81-1.13,5.18-2.26a45.24,45.24,0,0,0-2.72-4.73l-4.47,4.16-.25-.35L103,55.48l-2-2,11.61-6.77a43.48,43.48,0,0,0-3.31-4.42l-9,10.5-2.15-2.18,11.12-8.33a45.64,45.64,0,0,0-68-2.1L53.84,50.87l-8.4-14.4L56.8,48.68,50.13,33.39,59.76,46.5,51,53.14l-9.72-13a48.29,48.29,0,0,0-3.54,4.16L50.89,53.2l-2.77,2.1L37.66,44.41a46.63,46.63,0,0,0-2.78,4.18l12.94,6.94-2.67,2-10.36-8.8a47.9,47.9,0,0,0-2.32,4.51l7,2.79-1.19,1.32-5.86-3.9A44.49,44.49,0,0,0,30.67,58l5.61,1.56-1,1.15-4.67-2.42a46.41,46.41,0,0,0-1.19,4.57l3.41.56-.77.85-2.7-1a46.79,46.79,0,0,0-.88,9,45.89,45.89,0,1,0,91.78,0,46.61,46.61,0,0,0-1.1-10ZM107.9,52.57l4.93,7.16L105.89,55ZM97.5,49.93l-2.06-2.1,9.82-9.43Zm-2.75-2.79-2-2,8.37-9.84Zm-2.92-3L90,42.31,96.5,32.5Zm-.07-13.85-3,10.74-1.68-1.71Zm-36.56.54,7.69,13.54-.21-.12-2.8,2.12ZM44.48,58.05h0Zm-3.73-1.9L43,60l-4.25-1.35Zm30,55.38A.65.65,0,0,1,70,112,31.85,31.85,0,0,1,63,110.41a3.91,3.91,0,0,1-4.51,2.39s.66-2.56,2.72-3c-1-.38-2.07-.82-3.17-1.34A3.9,3.9,0,0,1,53.25,110a4.58,4.58,0,0,1,2.79-2.5c-.92-.48-1.86-1-2.82-1.6a3.9,3.9,0,0,1-5,1.15s1.3-2.27,3.39-2.2c-.77-.52-1.56-1.08-2.34-1.68-.18-.13-.35-.28-.52-.41a3.91,3.91,0,0,1-5,.2,4.63,4.63,0,0,1,3.2-1.7c-.86-.79-1.66-1.61-2.41-2.43a3.91,3.91,0,0,1-5-.29s1.73-1.74,3.66-1.29c-.83-1-1.57-2-2.23-2.94a3.91,3.91,0,0,1-4.9-.76s1.87-1.58,3.75-1c-.79-1.23-1.38-2.28-1.79-3a3.9,3.9,0,0,1-4.9-1s1.91-1.45,3.73-.81c-2-1.47-1-4.37-1-4.37a4,4,0,0,1,2.43,3A5,5,0,0,1,40.62,84a3.92,3.92,0,0,1-1.53,5c.44.79,1.08,1.91,1.94,3.21-.11-2.14,2.24-3.44,2.24-3.44a3.9,3.9,0,0,1-1.19,5c.67.94,1.43,1.93,2.28,2.94-.2-2.06,2-3.51,2-3.51a3.92,3.92,0,0,1-.68,5,37.85,37.85,0,0,0,2.78,2.73c-.69-2.16,1.49-4,1.49-4a3.91,3.91,0,0,1-.19,5.09c.17.14.32.28.49.41.7.53,1.39,1,2.08,1.5-.61-1.89,1-3.77,1-3.77a3.9,3.9,0,0,1,.7,4.89c1.06.66,2.11,1.24,3.12,1.75-1.16-1.89.45-4.19.45-4.19a3.93,3.93,0,0,1,1.14,5c1,.45,1.92.84,2.83,1.18-1.09-1.67,0-3.9,0-3.9a3.92,3.92,0,0,1,2,4.58,31.12,31.12,0,0,0,7,1.48A.8.8,0,0,1,70.76,111.53Zm-6.07-8.91-7.95-7.91V74.86h-3.4A7.81,7.81,0,0,1,51.45,77c-3,2.5-3.86,4.86-3.94,6.58a9.25,9.25,0,0,1,.08-8.8A9.4,9.4,0,0,0,40.65,81a11.75,11.75,0,0,1,4.43-11.65c3-2.26,2.48-4.67,1.85-6.11-.22-.53-.74-1,.38-2.23a36.31,36.31,0,0,1,15.27-10.8h0l-3.26-.89,4-3,3.76,2.51c.78-.17,1.57-.32,2.38-.44l-6.19-3.78L60.58,28.94l6.35,15.4L65.87,27.71l4.6,16,.87-16.65,2.79,16.44,2.44-16.45.8,16.61,4.28-16.09-.86,16.63,6-15.54L84.65,41.8l-6.37,6.37a35.87,35.87,0,0,1,13.43,3.92l-9.1-5.79L87.37,42,99.85,57.27,97,55.47a36.57,36.57,0,0,1,5.52,5.25,2.72,2.72,0,0,1,.48,2.56c-.36.76-2.17,3,2,6.1A11.77,11.77,0,0,1,109.43,81a9.39,9.39,0,0,0-6.93-6.22,9.27,9.27,0,0,1,.07,8.8c-.07-1.72-.93-4.08-3.94-6.58a5.58,5.58,0,0,1-2.2-3.18v1h-4V94.71l-8,7.91Zm47.61-9.11a3.92,3.92,0,0,1-4.91.76c-.65.94-1.39,1.93-2.22,2.94,1.92-.45,3.66,1.29,3.66,1.29a3.92,3.92,0,0,1-5,.29c-.75.82-1.55,1.64-2.41,2.43a4.67,4.67,0,0,1,3.21,1.7,3.93,3.93,0,0,1-5-.2c-.17.13-.33.28-.51.41-.79.6-1.57,1.16-2.35,1.68,2.09-.07,3.4,2.2,3.4,2.2a3.92,3.92,0,0,1-5-1.15c-1,.59-1.89,1.12-2.81,1.6a4.61,4.61,0,0,1,2.79,2.5,3.9,3.9,0,0,1-4.77-1.52c-1.11.52-2.17,1-3.17,1.34,2.06.46,2.72,3,2.72,3a3.92,3.92,0,0,1-4.52-2.39,31.72,31.72,0,0,1-7,1.56.65.65,0,0,1-.73-.44.81.81,0,0,1,.27-.77,31,31,0,0,0,7-1.48,3.91,3.91,0,0,1,2-4.58s1.06,2.23,0,3.9c.9-.34,1.85-.73,2.83-1.18a3.92,3.92,0,0,1,1.14-5s1.6,2.3.44,4.19c1-.51,2.06-1.09,3.13-1.75a3.9,3.9,0,0,1,.7-4.89s1.62,1.87,1,3.77c.69-.47,1.39-1,2.08-1.5l.5-.41a3.91,3.91,0,0,1-.19-5.09s2.18,1.84,1.48,4a36,36,0,0,0,2.78-2.73,3.93,3.93,0,0,1-.67-5s2.15,1.45,2,3.51c.84-1,1.61-2,2.28-2.94a3.9,3.9,0,0,1-1.2-5s2.35,1.3,2.24,3.44c.86-1.3,1.51-2.42,1.94-3.21a3.93,3.93,0,0,1-1.52-5A4.91,4.91,0,0,1,110,86.32a4,4,0,0,1,2.44-3s1,2.9-1,4.37c1.83-.64,3.74.81,3.74.81a3.92,3.92,0,0,1-4.91,1c-.4.77-1,1.82-1.78,3C110.43,91.93,112.3,93.51,112.3,93.51ZM88.78,62.93a25.27,25.27,0,0,1,3.69,2.89A24.61,24.61,0,0,0,88.78,62.93Zm-12.19,0H88.78a25.51,25.51,0,0,0-27.43,0H72.61V74.86h-4V90.69H80.56V74.86h-4Zm-15.24,0A24.5,24.5,0,0,0,57.49,66,24.38,24.38,0,0,1,61.35,62.93Z" transform="translate(0 0)"/><path d="M106.51,70.15c-4.26-3.24-3-5.83-2.61-6.63a3.6,3.6,0,0,0-.64-3A36,36,0,0,0,75.17,47.41c-11.45,0-21.49,4.68-28.29,13.06a2.71,2.71,0,0,0-.58,3c.64,1.52.89,3.4-2.23,5.78-6.29,4.78-3.88,13.62-3.88,13.62,2.06-5.8,6.19-7,6.19-7C43.81,81.11,48,86,48,86c.07-1.81.1-5.11,3.18-7.75C53.11,76.63,55,74.4,54.26,73a1.59,1.59,0,0,1-.07-1.94A24.34,24.34,0,0,1,75.13,59.53c8.75,0,15.76,4.19,20.44,11,.65.77.34,2.06.25,2.69-.33,2.29,1.27,3.39,3.37,5.18,3.09,2.64,3,5.26,3.07,7.07,0,0,3.67-4.58,1.1-9.79,0,0,4.15,1.35,6.21,7.16C109.57,82.84,112.79,74.94,106.51,70.15ZM109.43,81a9.39,9.39,0,0,0-6.93-6.22,9.27,9.27,0,0,1,.07,8.8c-.07-1.72-.93-4.08-3.94-6.58-2-1.7-2.52-3.07-2.21-5.25a3.16,3.16,0,0,0-.77-2.3A25.09,25.09,0,0,0,75,58.93,24.81,24.81,0,0,0,54.17,70c-.45.7-1.08,1.78-.68,2.49.74,1.29-.17,3-2,4.51-3,2.5-3.86,4.86-3.94,6.58a9.25,9.25,0,0,1,.08-8.8A9.4,9.4,0,0,0,40.65,81a11.75,11.75,0,0,1,4.43-11.65c3-2.26,2.48-4.67,1.85-6.11-.22-.53-.74-1,.38-2.23a36.06,36.06,0,0,1,55.23-.32,2.72,2.72,0,0,1,.48,2.56c-.36.76-2.17,3,2,6.1A11.77,11.77,0,0,1,109.43,81Z" transform="translate(0 0)"/><path d="M23.28,81.62l-.56.08a3.25,3.25,0,0,0-.24-1,.45.45,0,0,0-.3-.17,12,12,0,0,0-1.79.16l-4.11.55c-1.12.15-1.74.24-1.87.28l.13,1c.06.49.14.91.22,1.28,0,.15.06.23.09.25s.11,0,.25,0a6.82,6.82,0,0,0,1.08,0l.07.56-1.57.24L14,85,14,85c0-.21,0-.44-.06-.68,0-.39-.14-1.13-.29-2.24l-.36-2.73c-.15-1.14-.26-1.9-.32-2.28q0-.32-.12-.63l.06-.07c.28,0,.53,0,.74,0l1.5-.18.07.56a7.69,7.69,0,0,0-1,.23.68.68,0,0,0-.28.12.44.44,0,0,0,0,.23A12.92,12.92,0,0,0,14,78.6l.13,1c.17,0,.79-.09,1.89-.24l4.1-.54a12.08,12.08,0,0,0,1.78-.32.42.42,0,0,0,.23-.24,3.06,3.06,0,0,0,0-1l.55-.07c.09.88.17,1.62.25,2.23S23.13,80.79,23.28,81.62Z" transform="translate(0 0)"/><path d="M22.29,74.56l-.6,0a6.22,6.22,0,0,0,0-.79.53.53,0,0,0-.06-.22.27.27,0,0,0-.15-.1,3.85,3.85,0,0,0-.95-.14l-1.37-.1L15.93,73l-1.36,0a4.63,4.63,0,0,0-1,0,.27.27,0,0,0-.15.09.53.53,0,0,0-.1.2,5.13,5.13,0,0,0-.09.8l-.61,0c.08-.75.14-1.53.19-2.37s.07-1.4.07-2l.61,0q0,.73,0,.87a.37.37,0,0,0,.09.19,1.24,1.24,0,0,0,.48.11c.46.07,1.13.13,2,.19l.79,0c.05-.33.11-1,.17-2.07.08-1.33.12-2.15.1-2.47l-.78,0c-.71,0-1.17-.07-1.37-.07-.61,0-1,0-1,0a.39.39,0,0,0-.13.06.38.38,0,0,0-.08.17,5.24,5.24,0,0,0-.11.87l-.61,0c.06-.57.12-1.23.16-2s.08-1.63.1-2.38l.61,0a7.26,7.26,0,0,0,0,.79.41.41,0,0,0,.07.22.31.31,0,0,0,.14.11,5,5,0,0,0,1,.13l1.38.1,3.23.2,1.36,0a3.9,3.9,0,0,0,1,0,.28.28,0,0,0,.16-.09.46.46,0,0,0,.1-.2,7.75,7.75,0,0,0,.08-.8l.61,0c-.07.75-.14,1.54-.19,2.37s-.06,1.4-.07,2l-.61,0a7.76,7.76,0,0,0,0-.89.41.41,0,0,0-.09-.2,1.13,1.13,0,0,0-.48-.11c-.47,0-1.14-.1-2-.16L18,66.59c-.05.22-.1.89-.17,2s-.1,1.77-.11,2.12a3.05,3.05,0,0,0,0,.43l1.44.08c.72,0,1.18.06,1.38.05.61,0,1,0,1.05,0a.33.33,0,0,0,.12,0,.57.57,0,0,0,.09-.16c0-.08.06-.37.11-.86l.6,0c-.06.57-.12,1.23-.16,2S22.31,73.81,22.29,74.56Z" transform="translate(0 0)"/><path d="M23.26,62.82l-.36-.09a3.05,3.05,0,0,0-.22-.75l-.9-.3c-.75-.23-1.31-.38-1.66-.47l-3-.76-1.32-.3a3.76,3.76,0,0,0-.94-.14.21.21,0,0,0-.13.07,4.16,4.16,0,0,0-.36.92l-.51-.13.37-1.54c.08-.31.15-.6.22-.88.15-.61.32-1.28.49-2l.31-1.35q.06-.24.27-1a.81.81,0,0,1,.09-.21l.1,0,.93.38.95.31-.13.51a6.57,6.57,0,0,0-1-.18.22.22,0,0,0-.15,0,1.48,1.48,0,0,0-.24.5,13.23,13.23,0,0,0-.4,1.27c-.1.39-.18.79-.26,1.21a17.6,17.6,0,0,0,1.91.58l1.37.34c.11-.29.2-.59.29-.92,0-.1.1-.47.24-1.1a1.06,1.06,0,0,0,.06-.43.22.22,0,0,0-.11-.13,3.39,3.39,0,0,0-.83-.31l.14-.54,1.47.4,1.47.34-.14.54a2.6,2.6,0,0,0-1-.14.4.4,0,0,0-.24.25A8.46,8.46,0,0,0,19.69,58,9.86,9.86,0,0,0,19.47,59l2.81.71c.31.08.59.13.82.17q.18-.52.36-1.26c.12-.47.22-.91.29-1.33a2.27,2.27,0,0,0,.05-.77.21.21,0,0,0-.1-.12,7.67,7.67,0,0,0-1.15-.56l.14-.54a19.59,19.59,0,0,0,2.15.69l.06.11c0,.29-.13.7-.26,1.22l-.29,1.06c-.28,1.06-.47,1.78-.57,2.18C23.75,60.7,23.58,61.44,23.26,62.82Z" transform="translate(0 0)"/><path d="M18.42,47.5l-.51-.28L19,45.29l.43-.82.42-.83.11-.23.51.28a2.2,2.2,0,0,0-.33.89.33.33,0,0,0,.15.24,11.71,11.71,0,0,0,1.61,1l1.4.76.72.38q1.11.6,1.38.72a2.23,2.23,0,0,0,1.07.21,1.83,1.83,0,0,0,.95-.4,3.16,3.16,0,0,0,.87-1.1,3,3,0,0,0,.45-1.5,1.9,1.9,0,0,0-.37-1.12,5.43,5.43,0,0,0-1.63-1.16l-1.24-.67-2-1.06a4.23,4.23,0,0,0-1-.41.29.29,0,0,0-.22.06,2.57,2.57,0,0,0-.6.8L21.26,41c.42-.71.67-1.13.74-1.26l.08-.17.69-1.35.5.28a2,2,0,0,0-.29.75.4.4,0,0,0,.13.22,9.84,9.84,0,0,0,1.18.75c.71.42,1.28.75,1.7,1l1.43.77a10.83,10.83,0,0,1,1.08.69,3.05,3.05,0,0,1,.83.86,3,3,0,0,1,.38,1.07,3.44,3.44,0,0,1-.05,1.31,6.12,6.12,0,0,1-.58,1.47A6.52,6.52,0,0,1,27.9,49a3,3,0,0,1-1,.68,2.38,2.38,0,0,1-1,.19,2.53,2.53,0,0,1-.86-.16c-.15-.06-.55-.26-1.19-.61l-1.16-.63-1.55-.84c-.56-.31-1.08-.58-1.54-.8a1.38,1.38,0,0,0-.43-.14.56.56,0,0,0-.24.07Z" transform="translate(0 0)"/><path d="M31.13,42a6.91,6.91,0,0,0,.54-.76.26.26,0,0,0,0-.15.6.6,0,0,0-.14-.23c-.12-.14-.42-.44-.91-.9-.27-.26-.65-.59-1.11-1L27.84,37.5,26.3,36.23a4.1,4.1,0,0,0-.53-.4.49.49,0,0,0-.24-.07.4.4,0,0,0-.22.09,7.77,7.77,0,0,0-.64.61l-.44-.37c.4-.42.69-.74.87-1l.62-.77.39-.49c1.56.08,3.39.14,5.49.17,1.51,0,2.73,0,3.64,0L34,33c-1.89-1.61-3-2.53-3.39-2.78a.55.55,0,0,0-.33-.12,2.58,2.58,0,0,0-.8.73l-.44-.38c.38-.4.73-.78,1-1.14s.66-.8,1.1-1.36l.44.37a2.72,2.72,0,0,0-.55.84.27.27,0,0,0,0,.12,7.67,7.67,0,0,0,1.12,1.13c.61.55,1.07.95,1.36,1.2q3.49,3,4.31,3.55v.11c-.3.25-.6.51-.9.79-2.23,0-5.49,0-9.79-.08l2.62,2.23c.54.46,1.11.93,1.72,1.41a4.38,4.38,0,0,0,.8.56.22.22,0,0,0,.16,0,.44.44,0,0,0,.2-.13,5.25,5.25,0,0,0,.47-.46l.08-.11.44.38-1,1.12c-.29.33-.67.8-1.14,1.4Z" transform="translate(0 0)"/><path d="M36.41,23.57l.39.46a7.09,7.09,0,0,0-.6.58.49.49,0,0,0-.09.18.22.22,0,0,0,0,.14,2,2,0,0,0,.24.39l.43.52L38,27.25l1.81,2.12.84.94a3.84,3.84,0,0,0,.66.66.25.25,0,0,0,.16.05.4.4,0,0,0,.21-.07,4.57,4.57,0,0,0,.65-.49l.39.47c-.59.46-1.2,1-1.85,1.51s-1,.92-1.47,1.32L39,33.29c.36-.33.56-.53.61-.59a.41.41,0,0,0,.11-.18.27.27,0,0,0,0-.13l-.38-.53c-.35-.44-.67-.83-1-1.19l-1.87-2.2q-.88-1-1.17-1.32a8,8,0,0,0-.78-.79.28.28,0,0,0-.14-.06.31.31,0,0,0-.17,0,6.24,6.24,0,0,0-.69.52l-.4-.47c.46-.35,1-.76,1.54-1.25S35.86,24.08,36.41,23.57Z" transform="translate(0 0)"/><path d="M47.14,27.92l-2.4-1.76-2.05-1.48c-1.62-1.16-2.59-1.85-2.93-2.06a1.66,1.66,0,0,0-.65-.3,2.14,2.14,0,0,0-.79.34L38,22.14l1.73-1L41.8,19.8l.32.52a3.71,3.71,0,0,0-.68.5.37.37,0,0,0-.12.19.25.25,0,0,0,0,.17,6.2,6.2,0,0,0,1.08.89c.37.26.57.41.6.44l.1.08,3.72,2.72-.7-4-.27-1.37a11.68,11.68,0,0,0-.26-1.15,1.09,1.09,0,0,0-.08-.15.38.38,0,0,0-.12-.13.3.3,0,0,0-.13,0l-.23.1c-.27.14-.49.25-.67.36l-.32-.52,1.51-.88,1.24-.81.32.52a2.15,2.15,0,0,0-.59.53,6.78,6.78,0,0,0,.16,1.74l.19,1.23.38,2.38q.48,3,.75,4.26Z" transform="translate(0 0)"/><path d="M52.68,24.72l-.14-.34a4,4,0,0,0,.49-.62c-.05-.19-.14-.49-.28-.9-.25-.75-.44-1.3-.57-1.63l-1.12-2.9c0-.11-.21-.53-.51-1.25a3.4,3.4,0,0,0-.44-.85.16.16,0,0,0-.13-.06,3.71,3.71,0,0,0-.95.23l-.19-.49,1.47-.59.84-.32,1.94-.78,1.28-.53.94-.33a.88.88,0,0,1,.23,0l.08.06.23,1c0,.06.12.38.29,1l-.49.19a7.45,7.45,0,0,0-.42-.91.24.24,0,0,0-.13-.1,1.45,1.45,0,0,0-.54.09,12.56,12.56,0,0,0-1.27.41c-.37.14-.75.31-1.13.49a15.05,15.05,0,0,0,.62,1.89l.52,1.32c.29-.08.6-.18.91-.3l1-.44a1.24,1.24,0,0,0,.38-.2.27.27,0,0,0,0-.17,3.52,3.52,0,0,0-.23-.85l.53-.2L56.5,18l.57,1.4-.52.2a2.37,2.37,0,0,0-.46-.88.39.39,0,0,0-.33-.06,8.33,8.33,0,0,0-1.17.37c-.41.16-.75.31-1,.44l1.05,2.71a6.57,6.57,0,0,0,.33.77c.35-.11.76-.25,1.23-.43s.88-.36,1.26-.54a2.33,2.33,0,0,0,.66-.4.27.27,0,0,0,0-.15,6.82,6.82,0,0,0-.21-1.26l.52-.2c.24.88.47,1.6.68,2.15l0,.12a11.9,11.9,0,0,1-1.15.49l-1,.38c-1,.37-1.72.64-2.1.79C54.7,23.89,54,24.18,52.68,24.72Z" transform="translate(0 0)"/><path d="M58.51,12.88l-.11-.55,1.08-.18c.3,0,.73-.12,1.28-.23s.87-.18,1.2-.26c.55-.13,1-.23,1.37-.3a5.68,5.68,0,0,1,1.6-.15,1.76,1.76,0,0,1,1,.46,1.94,1.94,0,0,1,.59,1.1,2.44,2.44,0,0,1-.21,1.59A3.43,3.43,0,0,1,65,15.73c.15.18.32.36.5.54l.33.34a.52.52,0,0,0,.1.11l1.34,1.37.58.59c.42.38.68.61.77.67a.7.7,0,0,0,.26.13,1.17,1.17,0,0,0,.43,0l.12.6c-.7.1-1.2.18-1.51.24s-.72.16-1.07.26a1.61,1.61,0,0,0-.23-.36l-1.9-2.12c-.55-.61-1-1.08-1.36-1.42a2,2,0,0,0-.5-.36l0-.24a2.87,2.87,0,0,0,1.18-.4,1.69,1.69,0,0,0,.55-.83,2.3,2.3,0,0,0,.06-1.17,1.79,1.79,0,0,0-.49-1,1.61,1.61,0,0,0-.85-.43,3.54,3.54,0,0,0-1,.09,3.48,3.48,0,0,0-.63.18c0,.16.08.53.18,1.1.22,1.29.37,2.15.46,2.58.13.68.27,1.4.43,2.16.2.93.32,1.45.35,1.58a2,2,0,0,0,.17.48.31.31,0,0,0,.11.08.58.58,0,0,0,.21,0,5.86,5.86,0,0,0,.79-.11l.12.6c-.78.12-1.56.25-2.33.41s-1.34.27-1.93.42l-.11-.6A5.82,5.82,0,0,0,61,21a.35.35,0,0,0,.11-.09.91.91,0,0,0,0-.21q0-.27-.09-.81l-.36-2-.48-2.52-.31-1.43a4.24,4.24,0,0,0-.28-1,.23.23,0,0,0-.12-.1A3.83,3.83,0,0,0,58.51,12.88Z" transform="translate(0 0)"/><path d="M76.35,12.84h-.58a8.1,8.1,0,0,0-.08-1.14,1.76,1.76,0,0,0-.74-.52A3,3,0,0,0,73.77,11a2,2,0,0,0-1.43.5,1.43,1.43,0,0,0-.49,1.12,1.73,1.73,0,0,0,.16.74,1.18,1.18,0,0,0,.42.44,3,3,0,0,0,.79.29c.26,0,.63.12,1.1.19l.92.16a3.08,3.08,0,0,1,.9.34,1.84,1.84,0,0,1,.56.46,2.26,2.26,0,0,1,.34.66,2.85,2.85,0,0,1,.14.91,3.15,3.15,0,0,1-.34,1.56,3.23,3.23,0,0,1-.74.94,3.88,3.88,0,0,1-1,.64,5.29,5.29,0,0,1-2,.36,7,7,0,0,1-1.51-.13,7.21,7.21,0,0,1-1.45-.53,10.32,10.32,0,0,0,.18-2.39h.58A8.64,8.64,0,0,0,71,18.45a2.14,2.14,0,0,0,.9.74,3.1,3.1,0,0,0,1.38.31,2.83,2.83,0,0,0,1.16-.25,1.53,1.53,0,0,0,.73-.66,1.78,1.78,0,0,0,.21-.93,1.53,1.53,0,0,0-.17-.74,1.15,1.15,0,0,0-.51-.49,5,5,0,0,0-1.21-.37c-.83-.16-1.37-.28-1.63-.36a2.36,2.36,0,0,1-1-.5,2.2,2.2,0,0,1-.55-.81,2.9,2.9,0,0,1-.19-1,3.11,3.11,0,0,1,.3-1.43,2.6,2.6,0,0,1,.83-1,3.58,3.58,0,0,1,1.19-.53,6.11,6.11,0,0,1,1.36-.18,7.32,7.32,0,0,1,1.41.11,4.76,4.76,0,0,1,1.19.36l0,.16c0,.3-.1.6-.12.88S76.36,12.37,76.35,12.84Z" transform="translate(0 0)"/><path d="M84.06,11.05l-.07.61a7.64,7.64,0,0,0-.84-.05.38.38,0,0,0-.19.06.22.22,0,0,0-.09.1,1.29,1.29,0,0,0-.13.44c0,.12,0,.34-.09.67-.14,1.12-.22,1.73-.23,1.82l-.33,2.76L82,18.72a4.08,4.08,0,0,0,0,.93.27.27,0,0,0,.08.16.41.41,0,0,0,.19.1,4.63,4.63,0,0,0,.8.14l-.08.61c-.73-.12-1.52-.23-2.36-.33s-1.39-.15-2-.18l.08-.61a8,8,0,0,0,.84.05.36.36,0,0,0,.21-.05.19.19,0,0,0,.08-.1,5,5,0,0,0,.13-.64c.09-.55.16-1.05.21-1.52l.34-2.87c.11-.91.17-1.5.18-1.76a9.14,9.14,0,0,0,0-1.1.26.26,0,0,0,0-.14.26.26,0,0,0-.15-.1,6,6,0,0,0-.85-.16l.07-.61c.57.1,1.23.19,2,.28S83.32,11,84.06,11.05Z" transform="translate(0 0)"/><path d="M85.68,21.19l.14-.54a3.29,3.29,0,0,0,1,.14.46.46,0,0,0,.27-.21,10.77,10.77,0,0,0,.53-1.72l1.06-4c.29-1.09.45-1.71.46-1.84l-.94-.25c-.48-.13-.9-.22-1.27-.29a.62.62,0,0,0-.27,0,.64.64,0,0,0-.14.21,6.29,6.29,0,0,0-.37,1l-.55-.15c.23-.91.36-1.43.38-1.54s.08-.42.11-.65l.08,0c.2.07.42.14.65.2l2.18.6,2.66.71,2.23.57.62.13.05.09a6.72,6.72,0,0,0-.25.69s-.15.52-.41,1.45l-.55-.14c.08-.35.14-.69.18-1a.85.85,0,0,0,0-.31.47.47,0,0,0-.2-.11c-.36-.13-.78-.26-1.29-.4l-1-.25c-.06.16-.22.76-.51,1.83l-1.06,4a10.56,10.56,0,0,0-.39,1.75.42.42,0,0,0,.13.31,3.1,3.1,0,0,0,.92.37l-.14.54c-.85-.26-1.57-.46-2.16-.62S86.5,21.38,85.68,21.19Z" transform="translate(0 0)"/><path d="M99.3,20.59l1.37-.91,2.14-1.53.79-.58,1,.46-.13.29c-.82.44-1.74,1-2.75,1.63s-1.65,1.06-1.91,1.26a2.13,2.13,0,0,0-.4.39,2.32,2.32,0,0,0-.25.45l-.5,1.07c-.24.53-.41.92-.5,1.17a1.66,1.66,0,0,0-.11.49.41.41,0,0,0,.14.2,4.63,4.63,0,0,0,.8.43l-.26.56c-.77-.4-1.48-.74-2.11-1s-1.25-.57-1.9-.83l.26-.56a4.93,4.93,0,0,0,.86.33.29.29,0,0,0,.21,0,1,1,0,0,0,.24-.35c.24-.47.44-.87.59-1.2l.56-1.2a1.76,1.76,0,0,0,0-.7c0-.9-.14-1.81-.26-2.72a12.11,12.11,0,0,0-.37-1.84,3.3,3.3,0,0,0-.25-.61,2.92,2.92,0,0,0-.54-.3l.22-.46,1.44.35.77.16a3,3,0,0,1,.37.64,3.79,3.79,0,0,1,.19.84,18.59,18.59,0,0,1,.18,2C99.27,19.62,99.3,20.33,99.3,20.59Z" transform="translate(0 0)"/><path d="M107.1,25.37a5.91,5.91,0,0,1,1.71-1.44,4.47,4.47,0,0,1,1.87-.51,4.35,4.35,0,0,1,1.78.27A7.49,7.49,0,0,1,116,26.64a4.13,4.13,0,0,1,.52,1.46,4.42,4.42,0,0,1,0,1.36,4.55,4.55,0,0,1-.41,1.19,5.74,5.74,0,0,1-.79,1.17,6.42,6.42,0,0,1-1.89,1.55,4.35,4.35,0,0,1-1.69.5,4.25,4.25,0,0,1-1.74-.18,6.47,6.47,0,0,1-2.24-1.28,5.74,5.74,0,0,1-1.66-2.15,4.07,4.07,0,0,1-.26-2.39A5.37,5.37,0,0,1,107.1,25.37ZM109,26.42a7,7,0,0,0-1.38,2.32,2.72,2.72,0,0,0,.85,3.25,2.94,2.94,0,0,0,1.45.68,2.73,2.73,0,0,0,1.73-.38,6.53,6.53,0,0,0,1.85-1.58,7.2,7.2,0,0,0,1-1.49,4.12,4.12,0,0,0,.42-1.43,2.59,2.59,0,0,0-.15-1.25,2.84,2.84,0,0,0-.88-1.14,2.92,2.92,0,0,0-1.61-.74,2.64,2.64,0,0,0-1.69.4A6.58,6.58,0,0,0,109,26.42Z" transform="translate(0 0)"/><path d="M119,39.05l-.39-.47a3.5,3.5,0,0,0,.74-.75.36.36,0,0,0-.06-.28,9.6,9.6,0,0,0-.93-1.28l-.35-.41-.59.49c-.85.69-1.43,1.19-1.75,1.49a2.55,2.55,0,0,0-.53.57.31.31,0,0,0,0,.21,8.57,8.57,0,0,0,.6.9l-.43.35-1.67-2.12c-.25-.3-.65-.76-1.21-1.39l.44-.37a4.67,4.67,0,0,0,.64.67.21.21,0,0,0,.12,0,.79.79,0,0,0,.34-.15c.09-.06.36-.26.8-.6s.77-.58,1-.74l2.22-1.82,1.45-1.27a3.13,3.13,0,0,0,.53-.54.16.16,0,0,0,0-.12.58.58,0,0,0-.06-.2c0-.09-.2-.31-.46-.67l.45-.37,1.51,1.91,2.14,2.5a11.27,11.27,0,0,1,.77,1.06l0,.11c-.24.13-.52.31-.86.54s-.62.44-.86.63l-.36-.44c.09-.07.27-.24.56-.5a1.25,1.25,0,0,0,.25-.26.1.1,0,0,0,0-.09,1.74,1.74,0,0,0-.24-.54,6.18,6.18,0,0,0-.6-.86l-.42-.49-.48-.53a24,24,0,0,0-2,1.52l-.75.61c.35.47.58.78.71.93a4.35,4.35,0,0,0,.77.81.23.23,0,0,0,.2,0,2.87,2.87,0,0,0,.66-.45l.39.47Z" transform="translate(0 0)"/><path d="M127.4,41.18l.52-.25.92,2,.41.82.42.83.11.22-.52.25a2,2,0,0,0-.52-.79.37.37,0,0,0-.28,0,12.13,12.13,0,0,0-1.74.73l-1.44.69-.73.35c-.76.37-1.22.6-1.39.7a2.27,2.27,0,0,0-.81.74,1.87,1.87,0,0,0-.23,1,3.39,3.39,0,0,0,.38,1.34,3.05,3.05,0,0,0,1,1.25,1.93,1.93,0,0,0,1.12.36,5.53,5.53,0,0,0,1.9-.64l1.27-.61,2-1a3.69,3.69,0,0,0,.9-.54.28.28,0,0,0,.08-.21,2.63,2.63,0,0,0-.3-1l.52-.25c.33.76.52,1.2.59,1.34s.05.09.08.16l.69,1.35-.52.25a1.87,1.87,0,0,0-.44-.68.45.45,0,0,0-.25,0,13,13,0,0,0-1.3.52c-.76.33-1.36.59-1.79.8l-1.46.7a9.06,9.06,0,0,1-1.2.47,3,3,0,0,1-1.18.17,2.9,2.9,0,0,1-1.09-.33,3.31,3.31,0,0,1-1-.8,6.07,6.07,0,0,1-.86-1.34,6.72,6.72,0,0,1-.58-1.87,3.2,3.2,0,0,1,0-1.21,2.45,2.45,0,0,1,.43-.92,2.72,2.72,0,0,1,.63-.6q.21-.14,1.2-.6l1.2-.57,1.58-.76c.58-.27,1.1-.53,1.55-.78a1.42,1.42,0,0,0,.37-.26.59.59,0,0,0,.08-.24Z" transform="translate(0 0)"/><path d="M124.22,56.81l.55-.15a3,3,0,0,0,.35.92.45.45,0,0,0,.32.14,11.83,11.83,0,0,0,1.75-.39l4-1c1.1-.29,1.7-.46,1.83-.52l-.25-.94c-.13-.48-.25-.89-.38-1.24a.61.61,0,0,0-.12-.24.52.52,0,0,0-.25,0,8,8,0,0,0-1.07.18l-.14-.55,1.53-.43.61-.23.09,0a6.18,6.18,0,0,0,.14.67c.09.38.28,1.11.56,2.19l.7,2.67q.44,1.66.6,2.22c.06.2.13.4.19.6l-.05.09a5.67,5.67,0,0,0-.72.12l-1.47.36-.14-.55a7.4,7.4,0,0,0,1-.34c.15-.07.24-.12.26-.16a.63.63,0,0,0,0-.23c-.06-.37-.16-.81-.29-1.32l-.25-.95c-.16,0-.77.19-1.84.47l-4,1a11.09,11.09,0,0,0-1.72.54.43.43,0,0,0-.2.26,3.29,3.29,0,0,0,.14,1l-.55.14c-.19-.86-.37-1.59-.52-2.18S124.47,57.62,124.22,56.81Z" transform="translate(0 0)"/><path d="M125.81,62.33l.58,0a4.77,4.77,0,0,0,.13.65.42.42,0,0,0,.11.17.84.84,0,0,0,.22.14l1.09.37,1.75.52,4.59,1.37,1.61.46.09,1-6.88,3.73-.9.51-.61.33a.8.8,0,0,0-.16.15.55.55,0,0,0-.08.15,2.43,2.43,0,0,0,0,.4,2.63,2.63,0,0,0,0,.31l-.58,0-.13-1.9-.27-2.39.58-.06a3.36,3.36,0,0,0,.18.92.19.19,0,0,0,.2.09,1.69,1.69,0,0,0,.55-.21l1.44-.72L129,64.75l-.85-.22a4.81,4.81,0,0,0-1.21-.23.24.24,0,0,0-.22.13,3.09,3.09,0,0,0,0,1l-.58.06-.1-1.58Zm4,2.67c0,.43,0,.91.1,1.45s.1,1,.16,1.41l3.41-1.8Z" transform="translate(0 0)"/><path d="M126.78,73.08l.61.07a6.6,6.6,0,0,0,0,.8.49.49,0,0,0,0,.21.33.33,0,0,0,.14.12,4.18,4.18,0,0,0,.95.18l1.36.18,3.22.36,1.35.13a4,4,0,0,0,1,0,.3.3,0,0,0,.16-.08.41.41,0,0,0,.1-.19,6.83,6.83,0,0,0,.14-.8l.6.07c-.11.75-.22,1.53-.31,2.36s-.14,1.4-.18,2l-.6-.06c0-.5,0-.79,0-.88a.31.31,0,0,0-.08-.19,1.28,1.28,0,0,0-.47-.14c-.46-.09-1.13-.19-2-.29l-.79-.09c-.07.33-.16,1-.28,2.06-.15,1.33-.23,2.14-.23,2.46l.78.09c.71.08,1.16.13,1.36.14.61,0,1,.05,1,0l.13,0a.34.34,0,0,0,.1-.16,7.1,7.1,0,0,0,.15-.87l.61.07c-.1.57-.19,1.23-.27,2s-.17,1.61-.22,2.36l-.61-.07a6.48,6.48,0,0,0,.05-.79.8.8,0,0,0-.05-.22.26.26,0,0,0-.14-.11,4.77,4.77,0,0,0-.95-.19l-1.37-.18L128.89,83l-1.35-.13a4.56,4.56,0,0,0-1,0,.3.3,0,0,0-.16.08.53.53,0,0,0-.11.2c0,.09-.07.36-.13.79l-.6-.07c.11-.74.22-1.53.31-2.35s.15-1.4.18-2l.6.07c0,.5-.05.8,0,.89a.37.37,0,0,0,.08.21,1.28,1.28,0,0,0,.47.14c.47.07,1.14.16,2,.26l1.44.16c.06-.22.15-.89.27-2s.2-1.75.23-2.11c0-.14,0-.28,0-.42l-1.44-.16c-.71-.08-1.17-.12-1.37-.13q-.91,0-1,0a.22.22,0,0,0-.12,0,.36.36,0,0,0-.1.15,6.81,6.81,0,0,0-.15.85l-.61-.07c.1-.57.19-1.22.27-2S126.73,73.83,126.78,73.08Z" transform="translate(0 0)"/><polygon points="23.69 103.08 24.73 101.78 23.88 100.34 25.43 100.93 26.52 99.67 26.45 101.34 27.98 102 26.37 102.44 26.23 104.11 25.31 102.71 23.69 103.08"/><polygon points="27.4 108.45 28.32 107.05 27.33 105.7 28.93 106.15 29.9 104.79 29.98 106.46 31.56 106.97 30.01 107.56 30.02 109.23 28.98 107.92 27.4 108.45"/><polygon points="31.59 113.44 32.37 111.97 31.27 110.72 32.9 111.01 33.74 109.57 33.97 111.22 35.6 111.58 34.1 112.32 34.27 113.98 33.11 112.78 31.59 113.44"/><path d="M43,120.91c.89-1.24-4.59-3.35-4.59-3.35S42.11,122.15,43,120.91Z" transform="translate(0 0)"/><path d="M19.54,90.18c1.42-.55,2,5.32,2,5.32S18.12,90.73,19.54,90.18Z" transform="translate(0 0)"/><polygon points="124.77 103.08 123.73 101.77 124.59 100.34 123.04 100.93 121.94 99.67 122.02 101.34 120.5 102 122.09 102.44 122.24 104.11 123.16 102.71 124.77 103.08"/><polygon points="121.06 108.45 120.15 107.05 121.13 105.7 119.53 106.15 118.57 104.79 118.49 106.46 116.91 106.97 118.46 107.56 118.45 109.23 119.49 107.92 121.06 108.45"/><polygon points="116.87 113.44 116.1 111.97 117.2 110.72 115.56 111.01 114.73 109.57 114.49 111.22 112.87 111.58 114.36 112.31 114.2 113.98 115.35 112.78 116.87 113.44"/><path d="M105.47,120.91c-.89-1.24,4.59-3.35,4.59-3.35S106.36,122.15,105.47,120.91Z" transform="translate(0 0)"/><path d="M128.93,90.18c-1.42-.55-2,5.32-2,5.32S130.35,90.72,128.93,90.18Z" transform="translate(0 0)"/><path d="M52.08,129.8l.18-.54,1.28.28a.59.59,0,0,0,.33,0,.75.75,0,0,0,.25-.32A16.28,16.28,0,0,0,55,127l.52-1.57c.18-.54.37-1.13.57-1.76l.18-.57a.54.54,0,0,0,0-.28.11.11,0,0,0-.08-.09,1.24,1.24,0,0,0-.33,0c-1,.09-1.62.16-1.9.2l-.06-.07c0-.1,0-.24.07-.45A3.53,3.53,0,0,0,54,122l0,0c.86,0,1.55,0,2.07,0s1.32,0,2.42-.06l.11.15q0,.1-.24.6c-.14.33-.23.55-.26.64-.14.38-.48,1.35-1,2.9l-.33,1c-.31,1-.53,1.61-.64,2a4.59,4.59,0,0,0-.24,1,.26.26,0,0,0,.09.18,3,3,0,0,0,.9.43l.41.18-.17.54c-.94-.35-1.7-.62-2.29-.81C54.47,130.54,53.54,130.25,52.08,129.8Z" transform="translate(0 0)"/><path d="M67.28,128.91a4.07,4.07,0,0,1-.75-.68,2,2,0,0,1-.33-.73,2.61,2.61,0,0,1,.5-2.26,2.62,2.62,0,0,1,1.13-.79,3.44,3.44,0,0,1,1.61-.13,2.51,2.51,0,0,1,1.71.79,1.91,1.91,0,0,1,.47,1.5,2,2,0,0,1-.28.81,2.42,2.42,0,0,1-.59.65,4.77,4.77,0,0,1-.67.38,4,4,0,0,1,.83.58,2.23,2.23,0,0,1,.43.58,2.15,2.15,0,0,1,.19.67,3.13,3.13,0,0,1,0,.75,3.09,3.09,0,0,1-.68,1.68,3,3,0,0,1-1.51,1,3.53,3.53,0,0,1-1.48.1,3,3,0,0,1-1.3-.4,2.47,2.47,0,0,1-.65-.57,2.2,2.2,0,0,1-.44-.79,2.33,2.33,0,0,1-.08-1,2.47,2.47,0,0,1,.22-.81,2,2,0,0,1,.45-.61,2.29,2.29,0,0,1,.54-.39Zm.56.33A2.51,2.51,0,0,0,67,130a2.12,2.12,0,0,0-.36,1,1.92,1.92,0,0,0,.35,1.43,1.66,1.66,0,0,0,1.18.68,1.44,1.44,0,0,0,1.14-.33,1.56,1.56,0,0,0,.57-1.08,1.78,1.78,0,0,0-.08-.85,1.69,1.69,0,0,0-.51-.66,8.89,8.89,0,0,0-1.29-.83Zm1.58-1.12a1.81,1.81,0,0,0,.69-.6,1.88,1.88,0,0,0,.32-.85,1.44,1.44,0,0,0-.28-1.12,1.48,1.48,0,0,0-1-.53,1.3,1.3,0,0,0-1,.25,1.19,1.19,0,0,0-.46.85,1,1,0,0,0,.18.79,1.62,1.62,0,0,0,.29.37c.13.11.29.22.48.35l.47.29Z" transform="translate(0 0)"/><path d="M79.57,130.14l-.28-.12c0-.24,0-.59-.06-1l-.08-1.1-.09-.9-.11-.76c0-.33-.07-.54-.08-.6l-.06-.35c0-.11,0-.24-.08-.38l.08-.08c1.11-.09,2.07-.17,2.87-.26l.73-.08,1.3-.18.07.1a9.81,9.81,0,0,0,0,1,4,4,0,0,0,.07.46l-.06.1-.61,0-1.43.13c-1,.1-1.65.19-2,.26l.2,2.18a5.43,5.43,0,0,1,.94-.47,3.62,3.62,0,0,1,.86-.19,2.7,2.7,0,0,1,2,.49,2.45,2.45,0,0,1,.92,1.77,3.32,3.32,0,0,1-.33,1.83,3.74,3.74,0,0,1-1.46,1.56,4.1,4.1,0,0,1-1.86.61,3.5,3.5,0,0,1-.78,0,4.51,4.51,0,0,1-.83-.17c0-.2-.11-.39-.18-.59s-.23-.65-.5-1.34l.44-.2a3.35,3.35,0,0,0,.63.81,2.19,2.19,0,0,0,.81.47,2.09,2.09,0,0,0,1,.11,1.67,1.67,0,0,0,1.19-.64,2.32,2.32,0,0,0-.32-2.84,1.79,1.79,0,0,0-1.4-.37,2.43,2.43,0,0,0-.6.13,2.25,2.25,0,0,0-.44.22Z" transform="translate(0 0)"/><path d="M91.73,127.36a13.26,13.26,0,0,1-.67-2.1A3.79,3.79,0,0,1,91,124a3.29,3.29,0,0,1,.28-1.06,2.79,2.79,0,0,1,.61-.81,3.15,3.15,0,0,1,.92-.56,2.51,2.51,0,0,1,3.21.74,9.23,9.23,0,0,1,1.21,2.23,16.25,16.25,0,0,1,.64,1.89A4.92,4.92,0,0,1,98,128a3.42,3.42,0,0,1-.26,1.15,2.5,2.5,0,0,1-.58.82,3,3,0,0,1-1,.59,2.89,2.89,0,0,1-1.38.24,2.41,2.41,0,0,1-1.22-.46,3.71,3.71,0,0,1-1-1.17A12.57,12.57,0,0,1,91.73,127.36Zm1.2-1.53a22.57,22.57,0,0,0,1.2,2.54,3.55,3.55,0,0,0,1.09,1.35,1,1,0,0,0,.9.07,1.09,1.09,0,0,0,.64-.88,6.49,6.49,0,0,0-.71-2.71,24.84,24.84,0,0,0-1.25-2.6,4.14,4.14,0,0,0-.68-1,1.31,1.31,0,0,0-.6-.37,1,1,0,0,0-.6,0,1.09,1.09,0,0,0-.53.46,1.49,1.49,0,0,0-.11.86A8.64,8.64,0,0,0,92.93,125.83Z" transform="translate(0 0)"/><path d="M47.13,62.75l.65.79a12,12,0,0,1,3.32-4.19A15.27,15.27,0,0,0,47.13,62.75Z" transform="translate(0 0)"/><path d="M47.88,63.66l.66.8a11.93,11.93,0,0,1,3.31-4.2A15.27,15.27,0,0,0,47.88,63.66Z" transform="translate(0 0)"/><path d="M48.63,64.58l.66.79a11.93,11.93,0,0,1,3.31-4.2A15,15,0,0,0,48.63,64.58Z" transform="translate(0 0)"/><path d="M49.38,65.49l.66.79a12,12,0,0,1,3.31-4.2A15.18,15.18,0,0,0,49.38,65.49Z" transform="translate(0 0)"/><path d="M50.13,66.4l.66.79A12,12,0,0,1,54.1,63,15.4,15.4,0,0,0,50.13,66.4Z" transform="translate(0 0)"/><path d="M50.88,67.31l.66.79a11.94,11.94,0,0,1,3.31-4.19A15.27,15.27,0,0,0,50.88,67.31Z" transform="translate(0 0)"/><path d="M51.63,68.22l.66.79a11.94,11.94,0,0,1,3.31-4.19A15.27,15.27,0,0,0,51.63,68.22Z" transform="translate(0 0)"/><path d="M52.38,69.13l.74,1c-.18-.52,1.14-2.94,3.23-4.44A15.27,15.27,0,0,0,52.38,69.13Z" transform="translate(0 0)"/><path d="M47.84,64.76s1,1.28-.67,3.86a4.14,4.14,0,0,0,2.11-2.55Z" transform="translate(0 0)"/><path d="M49.22,65.91s-.34,2.51-1.41,3.54a4.2,4.2,0,0,0,2.12-2.55Z" transform="translate(0 0)"/><path d="M49.86,66.74s-.34,2.51-1.41,3.54a4.16,4.16,0,0,0,2.12-2.54Z" transform="translate(0 0)"/><path d="M50.5,67.57s-.33,2.51-1.4,3.55a4.21,4.21,0,0,0,2.11-2.55Z" transform="translate(0 0)"/><path d="M51.15,68.41s-.5,2.74-1.57,3.78a5.17,5.17,0,0,0,2.28-2.79Z" transform="translate(0 0)"/><path d="M51.79,69.24s-.55,3-1.62,4a6.55,6.55,0,0,0,2.33-3Z" transform="translate(0 0)"/><path d="M52.44,70.07A7.24,7.24,0,0,1,50.33,75s2.57-1.61,2.81-3.89Z" transform="translate(0 0)"/><path d="M103,62.75l-.66.79A11.94,11.94,0,0,0,99,59.35,15.27,15.27,0,0,1,103,62.75Z" transform="translate(0 0)"/><path d="M102.2,63.66l-.66.8a11.84,11.84,0,0,0-3.3-4.2A15.3,15.3,0,0,1,102.2,63.66Z" transform="translate(0 0)"/><path d="M101.45,64.58l-.66.79a11.93,11.93,0,0,0-3.31-4.2A15.18,15.18,0,0,1,101.45,64.58Z" transform="translate(0 0)"/><path d="M100.7,65.49l-.66.79a12,12,0,0,0-3.31-4.2A15.18,15.18,0,0,1,100.7,65.49Z" transform="translate(0 0)"/><path d="M100,66.4l-.66.79A12,12,0,0,0,96,63,15.4,15.4,0,0,1,100,66.4Z" transform="translate(0 0)"/><path d="M99.2,67.31l-.66.79a11.94,11.94,0,0,0-3.31-4.19A15.27,15.27,0,0,1,99.2,67.31Z" transform="translate(0 0)"/><path d="M98.45,68.22l-.66.79a11.94,11.94,0,0,0-3.31-4.19A15.27,15.27,0,0,1,98.45,68.22Z" transform="translate(0 0)"/><path d="M97.69,69.13l-.65.8a11.93,11.93,0,0,0-3.31-4.2A15.13,15.13,0,0,1,97.69,69.13Z" transform="translate(0 0)"/><path d="M102,64.8s-1,1.77.89,3.82a4.17,4.17,0,0,1-2.12-2.55Z" transform="translate(0 0)"/><path d="M100.87,65.91s.33,2.51,1.4,3.54a4.2,4.2,0,0,1-2.12-2.55Z" transform="translate(0 0)"/><path d="M100.22,66.74s.34,2.51,1.41,3.54a4.16,4.16,0,0,1-2.12-2.54Z" transform="translate(0 0)"/><path d="M99.58,67.57s.33,2.51,1.4,3.55a4.24,4.24,0,0,1-2.12-2.55Z" transform="translate(0 0)"/><path d="M98.93,68.41s.5,2.74,1.57,3.78a5.17,5.17,0,0,1-2.28-2.79Z" transform="translate(0 0)"/><path d="M98.29,69.24s.55,3,1.62,4a6.55,6.55,0,0,1-2.33-3Z" transform="translate(0 0)"/><path d="M97.65,70.07A8.69,8.69,0,0,0,99.54,75s-2.54-1.66-2.6-3.94Z" transform="translate(0 0)"/><path d="M59.07,58.66l-.24.15a1.39,1.39,0,0,0-.31-.39s-.07,0-.13,0a4.72,4.72,0,0,0-.68.36l-.22.14.19.32c.28.44.48.75.6.92a1,1,0,0,0,.24.29h.1l.46-.23.14.22-1.12.66c-.16.1-.41.26-.74.49l-.15-.24a1.73,1.73,0,0,0,.36-.25.09.09,0,0,0,0-.06.68.68,0,0,0-.05-.17s-.1-.19-.23-.42L57,60l-.72-1.16s-.19-.29-.51-.77a1.48,1.48,0,0,0-.22-.29.09.09,0,0,0-.06,0,.2.2,0,0,0-.09,0,2.3,2.3,0,0,0-.35.17l-.14-.23,1-.6,1.34-.86.55-.3.05,0c0,.12.11.26.2.44s.17.32.24.45l-.23.14-.2-.29a.8.8,0,0,0-.11-.14s0,0,0,0a.72.72,0,0,0-.28.07,3.8,3.8,0,0,0-.44.23l-.26.17-.29.2a10.59,10.59,0,0,0,.59,1l.24.39.49-.27a2,2,0,0,0,.44-.32.1.1,0,0,0,0-.1,2.48,2.48,0,0,0-.17-.34l.24-.15Z" transform="translate(0 0)"/><path d="M60.48,59.7l-.08-.16a1.7,1.7,0,0,0,.21-.31c0-.09-.09-.23-.17-.42-.15-.34-.26-.6-.34-.75l-.65-1.33c0-.06-.12-.25-.29-.57a1.68,1.68,0,0,0-.24-.39.11.11,0,0,0-.07,0,1.78,1.78,0,0,0-.45.15l-.11-.23.68-.34.39-.19.9-.45.6-.31.43-.2.11,0,0,0,.15.46a3.77,3.77,0,0,1,.18.44l-.23.11a3.57,3.57,0,0,0-.24-.42l-.06,0a1.1,1.1,0,0,0-.26.07,5.22,5.22,0,0,0-.59.25c-.18.08-.35.18-.53.28a7,7,0,0,0,.38.87l.29.61a3.93,3.93,0,0,0,.43-.18l.49-.25a.61.61,0,0,0,.18-.12.11.11,0,0,0,0-.08,1.59,1.59,0,0,0-.14-.4l.24-.11.3.66.34.64-.24.12a1,1,0,0,0-.26-.4.17.17,0,0,0-.16,0,4.13,4.13,0,0,0-.55.23c-.19.1-.35.18-.47.26l.61,1.24c.07.14.13.26.19.36.17-.07.36-.15.58-.26a5,5,0,0,0,.57-.31A1,1,0,0,0,63,58s0,0,0-.07a3.29,3.29,0,0,0-.15-.59l.24-.12a8.86,8.86,0,0,0,.41,1l0,.06c-.12.08-.3.17-.53.29l-.48.22-1,.46Z" transform="translate(0 0)"/><path d="M64,58,64,57.85a1.61,1.61,0,0,0,.21-.29c0-.1-.06-.23-.11-.38s-.29-.86-.57-1.65l-.37-1a3,3,0,0,0-.24-.59.18.18,0,0,0-.07,0,1.76,1.76,0,0,0-.5.1l-.09-.25.15-.05.43-.14.53-.18.48-.18.58-.23a2.65,2.65,0,0,1,.83-.18.87.87,0,0,1,.52.17.81.81,0,0,1,.28.4.89.89,0,0,1,0,.56,1,1,0,0,1-.25.49,3.9,3.9,0,0,1-.53.42,3.16,3.16,0,0,1,.85-.1,1,1,0,0,1,.48.23,1.16,1.16,0,0,1,.32.48A1.25,1.25,0,0,1,67,56a1.56,1.56,0,0,1-.2.56,1.9,1.9,0,0,1-.4.45,2,2,0,0,1-.66.36l-1,.34Zm.27-3,.18-.07a2.19,2.19,0,0,0,.38-.17.92.92,0,0,0,.25-.22.76.76,0,0,0,.09-.33,1,1,0,0,0-.06-.41.81.81,0,0,0-.22-.35.53.53,0,0,0-.31-.15,1.17,1.17,0,0,0-.44.08,2,2,0,0,0-.36.16c0,.15.1.33.16.52l.17.49Zm.79,2.2a2.88,2.88,0,0,0,.4-.11.83.83,0,0,0,.52-.48,1.08,1.08,0,0,0,0-.81,1.16,1.16,0,0,0-.31-.5.77.77,0,0,0-.44-.18,1.5,1.5,0,0,0-.59.12l-.23.1.5,1.41.14.37A.27.27,0,0,0,65.1,57.23Z" transform="translate(0 0)"/><path d="M68.11,55.68a.48.48,0,0,1,.39,0,.48.48,0,0,1,.23.32.49.49,0,0,1,0,.39.52.52,0,0,1-.7.18.46.46,0,0,1-.24-.32.49.49,0,0,1,.05-.39A.48.48,0,0,1,68.11,55.68Z" transform="translate(0 0)"/><path d="M70.6,56.07l0-.34.53-.68c.27-.36.47-.64.6-.83a3,3,0,0,0,.3-.54,1.72,1.72,0,0,0,.13-.43,1.21,1.21,0,0,0,0-.38.82.82,0,0,0-.26-.55.72.72,0,0,0-.55-.13.87.87,0,0,0-.34.12.69.69,0,0,0-.25.26,4.62,4.62,0,0,0-.07.53l-.26,0V52a1.33,1.33,0,0,1,.45-.37,2,2,0,0,1,.61-.18,1.72,1.72,0,0,1,.81.06,1,1,0,0,1,.5.39,1.18,1.18,0,0,1,.22.56,1.28,1.28,0,0,1,0,.39,1.78,1.78,0,0,1-.14.43,3.48,3.48,0,0,1-.25.43l-.32.42-.3.38-.52.63v0l.58-.07.86-.13c.16,0,.35-.05.58-.1l0,0c0,.2,0,.35,0,.46a1.35,1.35,0,0,0,.07.27v0l-1,.09-.47.05Z" transform="translate(0 0)"/><path d="M74.48,53.51a1.51,1.51,0,0,1-.39-.28.94.94,0,0,1-.21-.32,1.21,1.21,0,0,1-.07-.43,1.16,1.16,0,0,1,.18-.67,1.32,1.32,0,0,1,.49-.45,1.67,1.67,0,0,1,.75-.15,1.17,1.17,0,0,1,.86.27.89.89,0,0,1,.31.68,1,1,0,0,1-.09.41,1.11,1.11,0,0,1-.24.34,2,2,0,0,1-.3.22,1.85,1.85,0,0,1,.43.23.94.94,0,0,1,.24.25,1,1,0,0,1,.13.3,1.37,1.37,0,0,1,0,.36,1.54,1.54,0,0,1-.22.83,1.45,1.45,0,0,1-.66.56,1.62,1.62,0,0,1-.7.13,1.34,1.34,0,0,1-.63-.11,1.08,1.08,0,0,1-.34-.23,1.1,1.1,0,0,1-.26-.35,1.22,1.22,0,0,1-.1-.49,1.25,1.25,0,0,1,.06-.4.87.87,0,0,1,.18-.31,1.19,1.19,0,0,1,.23-.22Zm.28.13a1.31,1.31,0,0,0-.35.4,1.17,1.17,0,0,0-.11.49.93.93,0,0,0,.25.66.82.82,0,0,0,.6.25.69.69,0,0,0,.53-.22.81.81,0,0,0,.2-.55.75.75,0,0,0-.09-.39.7.7,0,0,0-.28-.29,5.17,5.17,0,0,0-.66-.32Zm.68-.63a.81.81,0,0,0,.29-.32.92.92,0,0,0,.11-.43.74.74,0,0,0-.2-.51.72.72,0,0,0-.53-.19.58.58,0,0,0-.45.18.55.55,0,0,0-.18.43.58.58,0,0,0,0,.19.42.42,0,0,0,.1.17.61.61,0,0,0,.16.16l.24.14.24.11Z" transform="translate(0 0)"/><path d="M77.51,53.24l.44,0v-.11l-.19,0a.09.09,0,0,1,0-.06s0-.16,0-.35l.07-.81a3,3,0,0,1,0-.38l.19,0,.27,0h0s0,0,0,.06v.21h.11l0-.3a1,1,0,0,1,0-.15h-.14l-.45,0-.55,0-.45,0-.13,0h0a.62.62,0,0,1,0,.13s0,.13,0,.32h.11a1.55,1.55,0,0,1,0-.21s0,0,0,0,0,0,0,0h.45s0,.16,0,.38l-.06.81c0,.2,0,.31,0,.35a.08.08,0,0,1,0,.05h-.19v.11Z" transform="translate(0 0)"/><path d="M78.46,53.32l0-.12h.2l0,0a.68.68,0,0,0,0-.19l0-.27.1-.63,0-.26a.69.69,0,0,0,0-.19s0,0,0,0l0,0-.15,0,0-.12.46.08.39.05,0,.12-.17,0a.05.05,0,0,0,0,0,.22.22,0,0,0,0,.09,3.62,3.62,0,0,0-.07.39l0,.16.41.07.49.06,0-.15c0-.14,0-.23,0-.27s0-.19,0-.2,0,0,0,0,0,0,0,0l-.16,0v-.12l.39.07.47.06,0,.12-.16,0h0l0,0a.68.68,0,0,0,0,.19l0,.26-.1.63,0,.27a.69.69,0,0,0,0,.19,0,0,0,0,0,0,0l0,0,.15,0v.11l-.47-.07-.39-.05,0-.12H80a.42.42,0,0,1,0-.09c0-.1,0-.23.06-.4l.05-.28-.4-.07-.42-.06h-.08l0,.29c0,.14,0,.23,0,.27s0,.19,0,.2a0,0,0,0,0,0,0l0,0,.16,0v.12l-.39-.06Z" transform="translate(0 0)"/><path d="M82.09,56.55l.09-.25.61.13a.21.21,0,0,0,.16,0,.32.32,0,0,0,.12-.15,8.61,8.61,0,0,0,.39-1.07l.25-.76q.12-.39.27-.84l.08-.27a.27.27,0,0,0,0-.14.08.08,0,0,0,0,0h-.15c-.48,0-.78.08-.91.1l0,0s0-.11,0-.21l0-.2v0l1,0,1.15,0,0,.07-.11.29a2.09,2.09,0,0,0-.12.31c-.07.18-.23.64-.48,1.39l-.15.46c-.15.45-.25.77-.3,1a1.84,1.84,0,0,0-.11.48.18.18,0,0,0,0,.09,1.55,1.55,0,0,0,.43.2l.19.08-.08.26L83.43,57Z" transform="translate(0 0)"/><path d="M86.37,55.79a1.93,1.93,0,0,1-.24-.42.93.93,0,0,1,0-.38,1.31,1.31,0,0,1,.11-.42,1.2,1.2,0,0,1,.46-.53,1.26,1.26,0,0,1,.63-.19A1.57,1.57,0,0,1,88,54a1.17,1.17,0,0,1,.66.61.92.92,0,0,1,0,.76.89.89,0,0,1-.25.32,1.23,1.23,0,0,1-.37.21,2.53,2.53,0,0,1-.36.07,1.61,1.61,0,0,1,.29.39,1.07,1.07,0,0,1,.11.33,1,1,0,0,1,0,.33,1.67,1.67,0,0,1-.11.34,1.58,1.58,0,0,1-.56.66,1.54,1.54,0,0,1-.83.22,1.77,1.77,0,0,1-.69-.18,1.56,1.56,0,0,1-.53-.37,1.25,1.25,0,0,1-.2-.36,1.27,1.27,0,0,1-.09-.43,1.21,1.21,0,0,1,.12-.48,1.38,1.38,0,0,1,.23-.33,1,1,0,0,1,.29-.21,1.39,1.39,0,0,1,.31-.1Zm.2.24a1.28,1.28,0,0,0-.49.21,1.23,1.23,0,0,0-.31.4.91.91,0,0,0,0,.7.79.79,0,0,0,.43.48.71.71,0,0,0,.57,0,.77.77,0,0,0,.42-.41.79.79,0,0,0,.09-.4.87.87,0,0,0-.13-.37,3.77,3.77,0,0,0-.46-.57Zm.88-.28a.8.8,0,0,0,.4-.17.84.84,0,0,0,.28-.34.71.71,0,0,0,0-.55.74.74,0,0,0-.39-.39.66.66,0,0,0-.49,0,.57.57,0,0,0-.34.32.41.41,0,0,0,0,.19.46.46,0,0,0,0,.2.7.7,0,0,0,.08.2,2,2,0,0,0,.16.24l.17.2Z" transform="translate(0 0)"/><path d="M88.81,57.33l-.07-.13c.07-.09.16-.23.28-.42l.28-.44.22-.37.18-.32.15-.25.07-.15a1.31,1.31,0,0,0,.09-.17h0l1.17.73.3.18.55.3v.07a4,4,0,0,0-.28.38,1.39,1.39,0,0,0-.11.19l0,0-.24-.16-.58-.36c-.41-.24-.69-.41-.86-.49l-.55.89a2.66,2.66,0,0,1,.5.09,2.48,2.48,0,0,1,.38.17,1.28,1.28,0,0,1,.64.79,1.15,1.15,0,0,1-.16.94,1.64,1.64,0,0,1-.65.6,1.83,1.83,0,0,1-1,.18,2.07,2.07,0,0,1-.88-.31,2.3,2.3,0,0,1-.31-.22l-.27-.3a2.33,2.33,0,0,0,.11-.28c0-.09.1-.31.2-.65l.23,0a1.34,1.34,0,0,0,0,.49,1,1,0,0,0,.17.42,1.08,1.08,0,0,0,.33.31.77.77,0,0,0,.64.1,1,1,0,0,0,.54-.46A.94.94,0,0,0,90,58a.88.88,0,0,0-.43-.55,1,1,0,0,0-.27-.12,1.11,1.11,0,0,0-.23,0A1.6,1.6,0,0,0,88.81,57.33Z" transform="translate(0 0)"/><path d="M91.41,58.66a6.14,6.14,0,0,1,.7-.79,2,2,0,0,1,.49-.34,1.4,1.4,0,0,1,.5-.14,1.13,1.13,0,0,1,.48,0,1.8,1.8,0,0,1,.46.23,1.38,1.38,0,0,1,.54.7,1.32,1.32,0,0,1-.06.8,4.15,4.15,0,0,1-.61,1,6.32,6.32,0,0,1-.61.73,2.28,2.28,0,0,1-.58.45,1.8,1.8,0,0,1-.53.17,1.3,1.3,0,0,1-.48,0,1.58,1.58,0,0,1-.48-.25,1.4,1.4,0,0,1-.44-.51,1.15,1.15,0,0,1-.11-.61,1.75,1.75,0,0,1,.22-.71A6.46,6.46,0,0,1,91.41,58.66Zm.92.12a11.31,11.31,0,0,0-.74,1.12,1.62,1.62,0,0,0-.28.78.47.47,0,0,0,.19.38.5.5,0,0,0,.52,0,2.92,2.92,0,0,0,.93-1A9.44,9.44,0,0,0,93.7,59a1.76,1.76,0,0,0,.23-.51.65.65,0,0,0,0-.34.42.42,0,0,0-.17-.23.45.45,0,0,0-.31-.11.7.7,0,0,0-.38.17A4.11,4.11,0,0,0,92.33,58.78Z" transform="translate(0 0)"/><polygon points="96.16 72.15 96.08 70.87 103.35 62 103.22 63.5 96.22 72.15 96.16 72.15"/><polygon points="53.57 71.75 53.97 70.81 46.38 61.59 46.51 63.09 53.51 71.75 53.57 71.75"/><path d="M74.32,23.38a48.75,48.75,0,1,0,48.75,48.75A48.75,48.75,0,0,0,74.32,23.38Zm0,96.92A48.09,48.09,0,1,1,122.4,72.22,48.09,48.09,0,0,1,74.32,120.3Z" transform="translate(0 0)"/><path d="M74.32,6.59a65.63,65.63,0,1,0,65.62,65.63A65.63,65.63,0,0,0,74.32,6.59Zm0,130.63a65,65,0,1,1,65-65A65,65,0,0,1,74.32,137.22Z" transform="translate(0 0)"/></svg>