<svg id="Layer_1" data-name="Layer 1" xmlns="http://www.w3.org/2000/svg" viewBox="0 0 636.8 618.01"><defs><style>.cls-1{fill:#ccc;}</style></defs><title>Untitled-1</title><path class="cls-1" d="M610.42,233.68c-10-31.34-8.58-68.73-27.27-94.87C564.06,112.11,528,101.43,501.68,82c-26.11-19.25-47.07-50.7-78.5-61C393,11.12,358,23.79,324.6,23.79c-33,0-67.49-12.83-97.26-3.22-31.12,10.05-51.94,41.2-77.9,60-26.5,19.23-62.61,29.63-81.91,56.17-19.11,26.29-18.12,64-28.34,95.66-9.81,30.37-33,59.92-33,93.58,0,33.19,23,62.34,32.58,92.33,10,31.34,8.58,68.73,27.27,94.87,19.09,26.7,55.13,37.39,81.47,56.82,26.11,19.25,47.07,50.7,78.5,61,30.14,9.88,65.15-2.79,98.58-2.79,32.94,0,67.49,12.83,97.26,3.22,31.12-10,51.94-41.2,77.9-60,26.5-19.22,62.61-29.63,81.91-56.17,19.11-26.29,18.11-64,28.34-95.66,9.81-30.37,33-59.92,33-93.59C643,292.82,620,263.67,610.42,233.68ZM323.36,616C162.73,616,32.51,485.8,32.51,325.17S162.73,34.31,323.36,34.31,614.21,164.53,614.21,325.17,484,616,323.36,616ZM243.76,308.5a98.85,98.85,0,0,0-5.87,8C239.7,313.74,241.69,311.09,243.76,308.5ZM506,287l-2.3-3.24,11.76-2a197.33,197.33,0,0,0-6.27-21.87l-16,9.1-3.1-4.35,18.82-5.66a196.48,196.48,0,0,0-9-21.19l-19,13.93-3.45-4.85,22.16-9.64a197.46,197.46,0,0,0-11.64-20.25L468.78,234.7l-1-1.47L446.67,254.3l-8.58-8.7,49.66-29a199.88,199.88,0,0,0-14.17-18.91L435.2,242.67,426,233.36l47.56-35.65a195.21,195.21,0,0,0-290.8-9l53.71,45.87L200.57,173l48.56,52.24-28.49-65.39,41.16,56-37.56,28.41-41.57-55.46a197.85,197.85,0,0,0-15.14,17.8l56.35,37.94-11.87,9L167.27,207a198.77,198.77,0,0,0-11.89,17.88l55.37,29.65-11.42,8.64L155,225.47a195,195,0,0,0-9.92,19.3l29.77,11.91-5.11,5.64-25.07-16.64A195.6,195.6,0,0,0,137.36,265l24,6.68-4.42,4.89-20-10.35a196.49,196.49,0,0,0-5.07,19.58l14.57,2.38-3.3,3.65-11.56-4.46a199.89,199.89,0,0,0-3.75,38.48c0,109.18,87.88,197.68,196.28,197.68S520.4,435,520.4,325.8A199.58,199.58,0,0,0,515.72,283Zm-38.24-45.12,21.06,30.64-29.68-20.1Zm-44.49-11.31-8.83-8.95,42-40.34Zm-11.77-11.93-8.57-8.69,35.81-42.1ZM399,206l-7.88-8L419,156Zm-.31-59.22-12.79,45.93-7.19-7.29ZM242.31,149,275.19,207l-.88-.54-12,9.08ZM196.45,265.31l0,0-.05,0Zm-16-8.14,9.57,16.28-18.19-5.75ZM308.84,494a2.76,2.76,0,0,1-3.13,1.87s-12-.75-30.12-6.66c-1.61,3.93-6.62,12-19.3,10.24,0,0,2.82-10.94,11.62-12.94-4.29-1.61-8.83-3.5-13.56-5.7-2.47,3.73-8.7,10.16-20.4,6.5,0,0,4-9.1,11.93-10.69-3.93-2.07-7.95-4.34-12-6.86-2.49,3.31-9.5,10.08-21.44,4.91,0,0,5.58-9.7,14.52-9.39-3.32-2.24-6.67-4.62-10-7.19-.76-.58-1.46-1.2-2.2-1.78-3.45,3-11,7.27-21.18.85,0,0,5.92-7.37,13.69-7.27-3.67-3.37-7.1-6.85-10.29-10.38-3.59,2.59-11.81,6.49-21.49-1.25,0,0,7.41-7.41,15.63-5.5-3.54-4.32-6.7-8.56-9.51-12.59-3.93,2.25-12.21,5.05-21-3.23,0,0,8-6.77,16-4.19-3.35-5.28-5.89-9.77-7.63-13-4,2.05-12.54,4.63-21-4.26,0,0,8.16-6.2,16-3.44-8.5-6.3-4.08-18.72-4.08-18.72,7.22,3.53,9.74,8.59,10.41,12.9,2.37-6.56,9.64-10.11,9.64-10.11,4.43,12.46-3.1,19-6.5,21.18,1.84,3.38,4.61,8.15,8.28,13.72-.47-9.15,9.58-14.73,9.58-14.73,5,11.89-1.71,18.78-5.09,21.3,2.86,4,6.12,8.25,9.75,12.57-.85-8.84,8.37-15,8.37-15,5.66,10.94.35,18.21-2.89,21.26,3.66,4,7.61,7.9,11.89,11.7-3-9.25,6.35-17.12,6.35-17.12,7.07,10.59,2.05,18.59-.8,21.79.71.57,1.39,1.16,2.11,1.72,3,2.3,5.95,4.43,8.9,6.45-2.62-8.13,4.35-16.15,4.35-16.15,8.08,8.8,5.29,17,3,20.92,4.54,2.8,9,5.28,13.35,7.5-4.95-8.12,1.92-17.92,1.92-17.92,9.51,8.37,6.79,17.35,4.86,21.2,4.2,1.93,8.24,3.59,12.1,5-4.64-7.13-.07-16.68-.07-16.68,10.29,6.44,9.59,15.22,8.39,19.57,17.9,5.71,29.92,6.34,29.92,6.34A3.44,3.44,0,0,1,308.84,494Zm-25.93-38.12-34-33.81V337.2H234.35a33.33,33.33,0,0,1-8.11,9.28c-12.84,10.7-16.51,20.8-16.82,28.12,0,0-10.39-16.49.31-37.6,0,0-21.1,3.05-29.67,26.59,0,0-7.2-30.44,19-49.84,13-9.64,10.6-20,7.91-26.14-.95-2.24-3.19-4.39,1.6-9.53a155.23,155.23,0,0,1,65.34-46.18h0l-13.94-3.84,17.27-12.69,16.08,10.76c3.35-.76,6.74-1.37,10.17-1.9L277,208.06l-11.67-67.29,27.17,65.88-4.55-71.13L307.6,204l3.75-71.19,11.93,70.3,10.41-70.38,3.44,71.07L355.45,135l-3.68,71.14,25.66-66.44-9.16,56.08L341,223a153.49,153.49,0,0,1,57.45,16.78l-38.93-24.76,20.37-18.46L433.26,262l-12.1-7.7a155.5,155.5,0,0,1,23.62,22.47c2.06,2.77,3.71,7.44,2.06,10.94-1.53,3.24-9.28,12.94,8.46,26.08,26.16,19.4,19,49.84,19,49.84C465.7,340.05,444.59,337,444.59,337c10.71,21.11.31,37.6.31,37.6-.31-7.32-4-17.42-16.82-28.12-5.62-4.69-8.46-8.79-9.43-13.6v4.32h-17v84.9l-34,33.81ZM486.51,417c-8.75,8.28-17,5.48-21,3.23-2.81,4-6,8.27-9.51,12.59,8.23-1.91,15.64,5.5,15.64,5.5-9.69,7.74-17.9,3.84-21.49,1.25-3.2,3.53-6.63,7-10.3,10.38,7.78-.1,13.69,7.27,13.69,7.27-10.16,6.42-17.73,2.12-21.17-.85-.74.58-1.44,1.2-2.2,1.78-3.37,2.57-6.72,4.95-10,7.19,8.94-.31,14.52,9.39,14.52,9.39-11.95,5.17-18.95-1.6-21.45-4.91-4.09,2.52-8.11,4.79-12,6.86,7.92,1.59,11.93,10.69,11.93,10.69-11.71,3.66-17.93-2.77-20.4-6.5q-7.11,3.3-13.56,5.7c8.8,2,11.62,12.94,11.62,12.94-12.68,1.79-17.69-6.31-19.3-10.24-18.12,5.91-30.13,6.66-30.13,6.66a2.75,2.75,0,0,1-3.12-1.87c-.57-1.85,1.16-3.3,1.16-3.3s12-.63,29.91-6.34c-1.2-4.35-1.89-13.13,8.39-19.57,0,0,4.57,9.55-.07,16.68,3.86-1.45,7.91-3.11,12.1-5-1.93-3.85-4.64-12.83,4.87-21.2,0,0,6.86,9.8,1.91,17.91,4.35-2.21,8.81-4.69,13.36-7.49-2.3-3.95-5.1-12.12,3-20.92,0,0,7,8,4.35,16.14,3-2,5.91-4.14,8.89-6.44.73-.56,1.4-1.15,2.11-1.72-2.85-3.2-7.86-11.2-.8-21.79,0,0,9.33,7.87,6.36,17.12a166.7,166.7,0,0,0,11.88-11.7c-3.24-3.05-8.54-10.32-2.89-21.26,0,0,9.23,6.2,8.38,15,3.63-4.32,6.89-8.56,9.75-12.57-3.38-2.52-10.06-9.41-5.09-21.3,0,0,10.05,5.58,9.58,14.73,3.66-5.57,6.44-10.34,8.28-13.72-3.4-2.17-10.93-8.72-6.51-21.18,0,0,7.28,3.55,9.64,10.11.68-4.32,3.2-9.37,10.42-12.9,0,0,4.42,12.42-4.08,18.73,7.8-2.77,16,3.43,16,3.43-8.44,8.89-17,6.31-21,4.26-1.74,3.27-4.28,7.76-7.63,13C478.51,410.2,486.51,417,486.51,417ZM385.93,286.16a106.35,106.35,0,0,1,15.79,12.36A105.69,105.69,0,0,0,385.93,286.16Zm-52.14,0h52.14a109.29,109.29,0,0,0-117.33,0h48.16V337.2h-17v67.7h51V337.2h-17Zm-65.2,0a104.4,104.4,0,0,0-16.5,13.16A105,105,0,0,1,268.59,286.16Z" transform="translate(-6.2 -17)"/><path class="cls-1" d="M461.75,317.06c-18.22-13.87-12.7-25-11.13-28.38,1.69-3.7-.65-9.87-2.78-12.79-29.08-35.1-71.74-56.12-120.14-56.12-49,0-91.89,20-121,55.85-4.92,5.43-3.48,10.63-2.5,13,2.77,6.5,3.83,14.53-9.53,24.7-26.88,20.47-16.58,58.28-16.58,58.28,8.81-24.83,26.47-29.94,26.47-29.94-11,22.27,6.95,43.31,6.95,43.31.32-7.73.44-21.86,13.63-33.15,8.22-7,16.35-16.6,13.1-22.46-1.78-3.17-2.25-5.14-.27-8.28,19.39-30.54,51.39-49.46,89.56-49.46,37.42,0,67.39,17.93,87.41,47.05,2.78,3.3,1.47,8.83,1.07,11.5-1.38,9.83,5.46,14.5,14.44,22.18,13.21,11.29,12.78,22.48,13.1,30.21,0,0,15.73-19.57,4.74-41.84,0,0,17.75,5.78,26.53,30.61C474.84,371.32,488.62,337.52,461.75,317.06Zm12.51,46.53C465.7,340.05,444.59,337,444.59,337c10.71,21.11.31,37.6.31,37.6-.31-7.32-4-17.42-16.82-28.12-8.74-7.29-10.82-13.14-9.47-22.47a13.48,13.48,0,0,0-3.3-9.84c-19.49-27.6-51.72-45.1-88.15-45.1-37.16,0-70.4,18.51-89.27,47.46-1.93,3-4.61,7.63-2.88,10.63,3.16,5.56-.77,12.65-8.77,19.32-12.84,10.7-16.51,20.8-16.82,28.12,0,0-10.39-16.49.31-37.6,0,0-21.1,3.05-29.67,26.59,0,0-7.2-30.44,19-49.84,13-9.64,10.6-20,7.91-26.14-.95-2.24-3.19-4.39,1.6-9.53a154.25,154.25,0,0,1,236.24-1.35c2.06,2.77,3.71,7.44,2.06,10.94-1.53,3.24-9.28,12.94,8.46,26.08C481.46,333.15,474.26,363.59,474.26,363.59Z" transform="translate(-6.2 -17)"/><path class="cls-1" d="M105.76,366.12l-2.38.32a13.78,13.78,0,0,0-1-4.09,1.81,1.81,0,0,0-1.29-.74,49.11,49.11,0,0,0-7.64.69l-17.57,2.35q-7.18,1-8,1.21l.56,4.14c.27,2.08.59,3.91.93,5.47a2.78,2.78,0,0,0,.38,1.07,2.14,2.14,0,0,0,1.07.22,31.33,31.33,0,0,0,4.63-.18l.32,2.38c-4,.61-6.22,1-6.72,1-.85.16-1.76.37-2.74.63l-.33-.22q-.08-1.38-.24-2.91c-.19-1.67-.59-4.86-1.22-9.59L62.9,356.22c-.65-4.87-1.1-8.11-1.36-9.75-.14-.88-.31-1.78-.5-2.67l.26-.33c1.21,0,2.26,0,3.16-.13q.24,0,6.4-.74l.32,2.38a33.73,33.73,0,0,0-4.29,1,3,3,0,0,0-1.2.54,2,2,0,0,0-.08,1q.09,2.42.53,5.76l.56,4.16c.69,0,3.37-.37,8-1L92.31,354a49.25,49.25,0,0,0,7.59-1.35,1.8,1.8,0,0,0,1-1,14,14,0,0,0-.07-4.22l2.38-.32q.56,5.65,1.07,9.53Q104.85,360.77,105.76,366.12Z" transform="translate(-6.2 -17)"/><path class="cls-1" d="M101.56,335.9l-2.6-.15a28.71,28.71,0,0,0,0-3.41,2.22,2.22,0,0,0-.28-.92,1.13,1.13,0,0,0-.61-.45A17.76,17.76,0,0,0,94,330.4l-5.86-.46-13.81-.82-5.82-.24a18.12,18.12,0,0,0-4.18.07,1.19,1.19,0,0,0-.66.36,2.13,2.13,0,0,0-.41.87,29,29,0,0,0-.4,3.41l-2.6-.16q.5-4.79.81-10.13.28-4.77.31-8.48L64,315a30.48,30.48,0,0,0,0,3.73,1.46,1.46,0,0,0,.37.83,5.67,5.67,0,0,0,2,.47c2,.3,4.86.56,8.62.78l3.37.2q.33-2.1.73-8.87c.34-5.68.49-9.2.43-10.54l-3.37-.2q-4.56-.27-5.85-.3c-2.61,0-4.09,0-4.43.07a1.26,1.26,0,0,0-.56.25,1.79,1.79,0,0,0-.36.7,30.27,30.27,0,0,0-.47,3.74l-2.61-.16q.42-3.68.71-8.46c.21-3.55.35-6.94.41-10.15l2.6.15a29.72,29.72,0,0,0,0,3.41,2.26,2.26,0,0,0,.29.93,1.2,1.2,0,0,0,.61.45,18.26,18.26,0,0,0,4.08.56l5.89.46,13.81.82,5.8.24a19.45,19.45,0,0,0,4.18,0,1.57,1.57,0,0,0,.67-.38,2.06,2.06,0,0,0,.41-.88,31.15,31.15,0,0,0,.38-3.41l2.6.16c-.32,3.2-.59,6.57-.81,10.13q-.28,4.77-.3,8.48l-2.6-.16a32.18,32.18,0,0,0,0-3.83,1.44,1.44,0,0,0-.38-.85,5.3,5.3,0,0,0-2-.48q-3-.31-8.68-.66l-6.18-.37q-.28,1.47-.71,8.55-.41,6.79-.49,9.06c0,.61,0,1.22,0,1.81l6.18.37c3.07.18,5,.26,5.88.21,2.63,0,4.13,0,4.49-.08a1.05,1.05,0,0,0,.53-.25,1.44,1.44,0,0,0,.37-.68,31.34,31.34,0,0,0,.47-3.66l2.6.16q-.42,3.68-.7,8.46C101.75,329.31,101.62,332.69,101.56,335.9Z" transform="translate(-6.2 -17)"/><path class="cls-1" d="M105.71,285.7l-1.55-.39a14.72,14.72,0,0,0-1-3.2c-.77-.32-2-.74-3.82-1.27q-4.87-1.48-7.11-2l-12.89-3.25q-.75-.18-5.62-1.28a16.26,16.26,0,0,0-4.06-.6,1,1,0,0,0-.53.32,15.68,15.68,0,0,0-1.54,3.91l-2.2-.56,1.6-6.59L68,267c.66-2.59,1.35-5.48,2.1-8.67l1.3-5.79c.18-.68.56-2,1.16-4.12a4.77,4.77,0,0,1,.42-.89l.42-.1,4,1.59,4,1.33-.55,2.21a26.11,26.11,0,0,0-4.22-.79A1,1,0,0,0,76,252a6.73,6.73,0,0,0-1,2.14,51.55,51.55,0,0,0-1.7,5.4q-.63,2.52-1.1,5.2a72.94,72.94,0,0,0,8.14,2.46l5.89,1.48a40.79,40.79,0,0,0,1.2-3.95c.11-.43.47-2,1.07-4.71a5.44,5.44,0,0,0,.25-1.84,1.18,1.18,0,0,0-.5-.56,15.26,15.26,0,0,0-3.52-1.3l.58-2.34,6.27,1.72,6.31,1.45-.59,2.33c-2.21-.57-3.61-.78-4.2-.6a1.66,1.66,0,0,0-1,1.05,34.18,34.18,0,0,0-1.59,5,46.54,46.54,0,0,0-1,4.62l12,3c1.34.34,2.51.59,3.49.74q.78-2.24,1.57-5.37t1.22-5.69a9.76,9.76,0,0,0,.23-3.33,1.21,1.21,0,0,0-.43-.5,31.49,31.49,0,0,0-4.92-2.38l.59-2.33a94.34,94.34,0,0,0,9.19,3l.28.45a50.22,50.22,0,0,1-1.11,5.23l-1.25,4.55c-1.2,4.5-2,7.6-2.44,9.3Q107.73,276.84,105.71,285.7Z" transform="translate(-6.2 -17)"/><path class="cls-1" d="M85,220.15,82.81,219l4.71-8.27,1.83-3.51,1.8-3.53.48-1,2.18,1.19c-1,1.85-1.49,3.12-1.43,3.8a1.48,1.48,0,0,0,.63,1,48.87,48.87,0,0,0,6.89,4.19l6,3.26,3,1.62q4.75,2.58,5.92,3.09a9.64,9.64,0,0,0,4.59.91,7.83,7.83,0,0,0,4-1.72,14.2,14.2,0,0,0,3.73-4.69,13,13,0,0,0,1.89-6.42,8.1,8.1,0,0,0-1.54-4.79q-1.48-2-7-5l-5.29-2.87L107,191.77a18.58,18.58,0,0,0-4.14-1.78,1.42,1.42,0,0,0-1,.26,12,12,0,0,0-2.54,3.46l-2.18-1.18c1.79-3,2.85-4.82,3.16-5.4.08-.15.2-.39.35-.71l2.93-5.76,2.17,1.18a7.94,7.94,0,0,0-1.24,3.22,1.7,1.7,0,0,0,.52.93,45.28,45.28,0,0,0,5.06,3.22q4.57,2.72,7.28,4.17l6.1,3.31a43.24,43.24,0,0,1,4.64,2.95,13.33,13.33,0,0,1,3.53,3.66,12.69,12.69,0,0,1,1.64,4.61,14.7,14.7,0,0,1-.24,5.57,24.3,24.3,0,0,1-2.47,6.29,27.52,27.52,0,0,1-5,6.74,13.44,13.44,0,0,1-4.28,2.92,10.6,10.6,0,0,1-4.23.8,10.44,10.44,0,0,1-3.68-.69q-1-.37-5.1-2.6l-5-2.73-6.59-3.58q-3.63-2-6.61-3.43a6.11,6.11,0,0,0-1.83-.58,2.46,2.46,0,0,0-1,.3Z" transform="translate(-6.2 -17)"/><path class="cls-1" d="M139.34,196.5a33.76,33.76,0,0,0,2.33-3.23,1.28,1.28,0,0,0,.06-.67,2.67,2.67,0,0,0-.59-1c-.5-.58-1.78-1.86-3.87-3.84q-1.78-1.68-4.77-4.22l-7.21-6.15L118.67,172a18.15,18.15,0,0,0-2.25-1.69,2.18,2.18,0,0,0-1-.3,1.93,1.93,0,0,0-1,.39,28.39,28.39,0,0,0-2.73,2.61l-1.88-1.61q2.56-2.7,3.7-4l2.68-3.3,1.67-2.12q10,.56,23.47.74,9.72.13,15.59-.22L151.74,158q-12.12-10.32-14.49-11.88a2.1,2.1,0,0,0-1.42-.52q-.84.16-3.42,3.1l-1.88-1.61q2.47-2.59,4.42-4.87t4.71-5.84l1.88,1.6c-1.5,1.86-2.28,3-2.35,3.58a.73.73,0,0,0,.13.53,33.54,33.54,0,0,0,4.77,4.82q3.91,3.53,5.84,5.15,15,12.75,18.41,15.17l-.05.46q-1.9,1.64-3.84,3.38-14.28.3-41.85-.32l11.17,9.52q3.48,3,7.38,6a24,24,0,0,0,3.4,2.44,1.26,1.26,0,0,0,.69.07,2.2,2.2,0,0,0,.88-.55,25.84,25.84,0,0,0,2-2,5.19,5.19,0,0,0,.36-.47l1.88,1.61q-3.66,4.2-4.16,4.78-1.85,2.17-4.86,6Z" transform="translate(-6.2 -17)"/><path class="cls-1" d="M161.92,117.8l1.69,2a29.93,29.93,0,0,0-2.58,2.49,2.18,2.18,0,0,0-.4.77.92.92,0,0,0,.07.59,6.81,6.81,0,0,0,1,1.66c.31.4.92,1.15,1.83,2.24l5,6,7.72,9.06,3.62,4a16.15,16.15,0,0,0,2.79,2.82,1.18,1.18,0,0,0,.71.23,2.29,2.29,0,0,0,.9-.3,26.45,26.45,0,0,0,2.75-2.09l1.69,2q-3.78,3-7.91,6.48c-2.4,2-4.49,3.92-6.28,5.62l-1.69-2c1.54-1.42,2.41-2.26,2.62-2.51a1.91,1.91,0,0,0,.45-.81,1,1,0,0,0-.09-.54,27.76,27.76,0,0,0-1.62-2.28c-1.47-1.85-2.85-3.55-4.16-5.08l-8-9.4q-3.82-4.49-5-5.67a37,37,0,0,0-3.32-3.35,1.35,1.35,0,0,0-.6-.28,1.55,1.55,0,0,0-.75.2,30.85,30.85,0,0,0-3,2.2l-1.69-2c2-1.49,4.16-3.28,6.59-5.35Q158.42,121.06,161.92,117.8Z" transform="translate(-6.2 -17)"/><path class="cls-1" d="M207.82,136.43q-5.37-4-10.25-7.52l-8.8-6.35q-10.35-7.45-12.49-8.8a7.09,7.09,0,0,0-2.82-1.3,9.47,9.47,0,0,0-3.37,1.46l-1.37-2.22c4.07-2.35,6.53-3.79,7.4-4.32l8.86-5.7,1.36,2.22a18,18,0,0,0-2.89,2.13,1.78,1.78,0,0,0-.54.84,1.08,1.08,0,0,0,.17.74c.31.51,1.84,1.76,4.59,3.77,1.59,1.15,2.44,1.78,2.56,1.88l.45.36,15.89,11.65-3-17.27c-.06-.4-.45-2.35-1.15-5.85-.49-2.48-.87-4.11-1.12-4.9a5.54,5.54,0,0,0-.33-.64,1.34,1.34,0,0,0-.53-.55.9.9,0,0,0-.56-.09,4.4,4.4,0,0,0-1,.42c-1.15.57-2.1,1.08-2.86,1.52l-1.36-2.22L201.16,92l5.29-3.49,1.37,2.22a9.47,9.47,0,0,0-2.5,2.27c-.24.63,0,3.11.69,7.44l.8,5.27,1.61,10.18q2.09,13,3.21,18.25Z" transform="translate(-6.2 -17)"/><path class="cls-1" d="M231.52,122.75l-.58-1.49a14.22,14.22,0,0,0,2.07-2.63c-.19-.81-.58-2.1-1.17-3.86-1.08-3.21-1.89-5.54-2.45-7L224.6,95.39c-.18-.47-.92-2.25-2.2-5.32a15.41,15.41,0,0,0-1.85-3.66.94.94,0,0,0-.56-.26,16.25,16.25,0,0,0-4.09,1L215.08,85l6.31-2.5,3.6-1.4c2.49-1,5.26-2.06,8.29-3.3l5.48-2.28c.66-.25,2-.72,4-1.43a4.43,4.43,0,0,1,1-.17l.33.28,1,4.18c.09.28.5,1.64,1.25,4.07l-2.12.82a27.51,27.51,0,0,0-1.79-3.91,1,1,0,0,0-.54-.42,6.81,6.81,0,0,0-2.35.4,51.46,51.46,0,0,0-5.39,1.73c-1.61.62-3.24,1.32-4.87,2.1A71.91,71.91,0,0,0,232,91.28l2.19,5.66a40.81,40.81,0,0,0,3.92-1.3c.41-.16,1.9-.77,4.46-1.85a5.29,5.29,0,0,0,1.64-.85,1.15,1.15,0,0,0,.18-.73,15.68,15.68,0,0,0-1-3.63l2.24-.87,2.22,6.11,2.46,6-2.25.87c-.8-2.14-1.45-3.39-1.93-3.78a1.7,1.7,0,0,0-1.45-.23,33.67,33.67,0,0,0-5,1.58,44.31,44.31,0,0,0-4.33,1.88l4.47,11.57c.5,1.29,1,2.39,1.42,3.28,1.51-.44,3.28-1,5.29-1.83s3.74-1.51,5.35-2.28a9.44,9.44,0,0,0,2.84-1.74,1.06,1.06,0,0,0,.16-.63,30.48,30.48,0,0,0-.9-5.39l2.25-.87a92.62,92.62,0,0,0,2.89,9.22l-.21.49a52.67,52.67,0,0,1-4.91,2.11l-4.44,1.61q-6.54,2.43-9,3.37Q239.92,119.29,231.52,122.75Z" transform="translate(-6.2 -17)"/><path class="cls-1" d="M256.46,72.1,256,69.74c.44-.09,2-.34,4.62-.76q1.92-.3,5.46-1c2-.39,3.72-.76,5.13-1.11q3.53-.84,5.85-1.29a26.19,26.19,0,0,1,6.87-.65,7.54,7.54,0,0,1,4.34,2,8.25,8.25,0,0,1,2.55,4.71,10.61,10.61,0,0,1-.92,6.81,14.54,14.54,0,0,1-5.73,5.84c.64.77,1.36,1.55,2.15,2.33s1.25,1.26,1.39,1.43a5.26,5.26,0,0,0,.44.49l5.74,5.85c1.53,1.56,2.36,2.39,2.48,2.51q2.72,2.46,3.3,2.89a3,3,0,0,0,1.09.53,5.38,5.38,0,0,0,1.85-.12l.5,2.56q-4.49.66-6.46,1c-1.54.3-3,.66-4.55,1.08a7.14,7.14,0,0,0-1-1.52L283,94.3c-2.33-2.6-4.27-4.63-5.81-6.07A9,9,0,0,0,275,86.66l.13-1a11.89,11.89,0,0,0,5-1.72,6.9,6.9,0,0,0,2.37-3.53,9.75,9.75,0,0,0,.28-5,7.66,7.66,0,0,0-2.13-4.2,6.75,6.75,0,0,0-3.6-1.86,14.42,14.42,0,0,0-4.39.39,16.41,16.41,0,0,0-2.68.76c.08.71.33,2.28.74,4.72q1.44,8.26,2,11,.84,4.36,1.88,9.22c.85,4,1.34,6.24,1.49,6.77a7,7,0,0,0,.73,2.06,1.16,1.16,0,0,0,.45.35,2.28,2.28,0,0,0,.9.14,27.27,27.27,0,0,0,3.37-.47l.5,2.56q-5,.75-10,1.73-4.45.85-8.22,1.79l-.49-2.56a21.81,21.81,0,0,0,3.82-1.07.88.88,0,0,0,.45-.39,1.92,1.92,0,0,0,.08-.86,26.78,26.78,0,0,0-.37-3.48l-1.52-8.51-2.09-10.79-1.31-6.11a19.57,19.57,0,0,0-1.19-4.29,1.06,1.06,0,0,0-.51-.41A16,16,0,0,0,256.46,72.1Z" transform="translate(-6.2 -17)"/><path class="cls-1" d="M332.78,71.91l-2.48,0a37.15,37.15,0,0,0-.37-4.84,7.38,7.38,0,0,0-3.17-2.26,12.22,12.22,0,0,0-5-.92,8.66,8.66,0,0,0-6.12,2.13,6.27,6.27,0,0,0-2.1,4.78A7.29,7.29,0,0,0,314.2,74,4.81,4.81,0,0,0,316,75.9a13,13,0,0,0,3.38,1.25c1.13.21,2.7.49,4.73.81s3.33.55,3.94.67a15,15,0,0,1,3.85,1.44,8.13,8.13,0,0,1,2.35,2,9.52,9.52,0,0,1,1.46,2.85,12.52,12.52,0,0,1,.62,3.88,13.68,13.68,0,0,1-1.45,6.67,13.9,13.9,0,0,1-3.19,4,15.5,15.5,0,0,1-4.24,2.75,22.55,22.55,0,0,1-8.42,1.55,27.56,27.56,0,0,1-6.43-.57,30.65,30.65,0,0,1-6.22-2.23,43.26,43.26,0,0,0,.77-10.24l2.47,0a37.61,37.61,0,0,0,.41,5.28,9.25,9.25,0,0,0,3.86,3.15,12.63,12.63,0,0,0,5.9,1.3,11.91,11.91,0,0,0,4.94-1.07,6.61,6.61,0,0,0,3.12-2.79,8,8,0,0,0,.92-4,6.91,6.91,0,0,0-.74-3.18,5.09,5.09,0,0,0-2.18-2.1,22.45,22.45,0,0,0-5.18-1.57q-5.31-1.05-7-1.52A10.14,10.14,0,0,1,309.59,82a9,9,0,0,1-2.35-3.46,12.75,12.75,0,0,1-.83-4.41A13.55,13.55,0,0,1,307.69,68a11,11,0,0,1,3.57-4.39,14.85,14.85,0,0,1,5.06-2.28,25.64,25.64,0,0,1,5.82-.76,31.52,31.52,0,0,1,6,.47,19.88,19.88,0,0,1,5.08,1.53l.25.71a36.79,36.79,0,0,0-.54,3.77C332.87,68.28,332.8,69.9,332.78,71.91Z" transform="translate(-6.2 -17)"/><path class="cls-1" d="M365.74,64.28l-.3,2.59a29.32,29.32,0,0,0-3.58-.2,2.14,2.14,0,0,0-.84.23,1,1,0,0,0-.38.44,6.82,6.82,0,0,0-.53,1.88c-.08.5-.22,1.46-.4,2.87q-.93,7.22-1,7.77l-1.4,11.83-.51,5.39a16.92,16.92,0,0,0-.17,4,1.17,1.17,0,0,0,.31.67,2.24,2.24,0,0,0,.83.46,28.85,28.85,0,0,0,3.41.6l-.31,2.58c-3.15-.5-6.53-1-10.12-1.4-3.14-.37-5.93-.63-8.4-.79l.31-2.59c2.09.17,3.29.24,3.62.22a1.77,1.77,0,0,0,.9-.22,1,1,0,0,0,.34-.43c.08-.23.27-1.14.56-2.74q.56-3.5.91-6.5l1.45-12.27q.69-5.83.76-7.53a39.56,39.56,0,0,0,.2-4.71,1.3,1.3,0,0,0-.2-.62,1.5,1.5,0,0,0-.66-.42,30.61,30.61,0,0,0-3.63-.68l.31-2.59q3.64.63,8.4,1.2Q361,63.92,365.74,64.28Z" transform="translate(-6.2 -17)"/><path class="cls-1" d="M372.65,107.63l.62-2.32a14.42,14.42,0,0,0,4.17.62,1.87,1.87,0,0,0,1.18-.92,49.06,49.06,0,0,0,2.27-7.32l4.55-17.13c1.24-4.68,1.89-7.3,1.95-7.88l-4-1.07c-2-.54-3.84-1-5.42-1.22a2.55,2.55,0,0,0-1.14-.06,2.15,2.15,0,0,0-.6.9,29.34,29.34,0,0,0-1.6,4.35L372.26,75c1-3.9,1.5-6.11,1.62-6.6.17-.85.32-1.77.46-2.77l.32-.22c.87.3,1.8.59,2.79.88q2.42.7,9.33,2.54l11.4,3c4.74,1.25,7.92,2.08,9.53,2.46.87.2,1.76.39,2.66.56l.21.36c-.47,1.12-.83,2.11-1.1,3-.06.15-.64,2.21-1.75,6.2l-2.33-.61a33.62,33.62,0,0,0,.75-4.33,2.88,2.88,0,0,0,0-1.32,2,2,0,0,0-.85-.44c-1.52-.56-3.35-1.13-5.53-1.71l-4.06-1.08c-.23.66-.95,3.26-2.16,7.82L389,99.83a46.14,46.14,0,0,0-1.65,7.52,1.76,1.76,0,0,0,.55,1.33,14.2,14.2,0,0,0,3.94,1.55l-.62,2.32q-5.44-1.65-9.22-2.65Q378,108.84,372.65,107.63Z" transform="translate(-6.2 -17)"/><path class="cls-1" d="M430.92,105.06l5.86-3.88q1.52-1.07,9.17-6.57c1.76-1.25,2.89-2.07,3.37-2.47l4.29,2-.56,1.2q-5.28,2.85-11.78,7t-8.18,5.41a9.38,9.38,0,0,0-1.71,1.65,11.69,11.69,0,0,0-1.06,2l-2.12,4.54a52.71,52.71,0,0,0-2.14,5,5.74,5.74,0,0,0-.47,2.08,1.57,1.57,0,0,0,.58.85,23,23,0,0,0,3.42,1.86l-1.11,2.36q-5-2.53-9-4.43c-2.64-1.23-5.35-2.42-8.11-3.57l1.1-2.36a30.05,30.05,0,0,0,3.66,1.41,1.37,1.37,0,0,0,.9-.06,4.67,4.67,0,0,0,1-1.48c1-2,1.88-3.73,2.54-5.16l2.38-5.1a8.28,8.28,0,0,0,.18-3q-.34-5.79-1.12-11.61a46.6,46.6,0,0,0-1.6-7.87,10.41,10.41,0,0,0-1.07-2.63,10,10,0,0,0-2.28-1.26l.93-2,6.16,1.53c1.05.24,2.15.46,3.28.67a13.22,13.22,0,0,1,1.61,2.72,18.59,18.59,0,0,1,.81,3.62,71.07,71.07,0,0,1,.74,8.48Q430.92,103.38,430.92,105.06Z" transform="translate(-6.2 -17)"/><path class="cls-1" d="M464.28,125.51a25,25,0,0,1,7.33-6.14,18.86,18.86,0,0,1,8-2.21,18.65,18.65,0,0,1,7.64,1.16,30.23,30.23,0,0,1,8.58,5.21,29.16,29.16,0,0,1,6.43,7.41,17.38,17.38,0,0,1,2.21,6.23,17.57,17.57,0,0,1,0,5.84,19.8,19.8,0,0,1-1.74,5.07,25.3,25.3,0,0,1-3.37,5,27.64,27.64,0,0,1-8.12,6.64,18.77,18.77,0,0,1-7.22,2.15,19.22,19.22,0,0,1-7.45-.77A28,28,0,0,1,467,155.6a24.68,24.68,0,0,1-7.1-9.17,17.61,17.61,0,0,1-1.09-10.23A23.2,23.2,0,0,1,464.28,125.51Zm8,4.49a30,30,0,0,0-5.93,9.92,13.35,13.35,0,0,0-.44,8,12.69,12.69,0,0,0,4.1,5.91,12.52,12.52,0,0,0,6.21,2.93,11.65,11.65,0,0,0,7.38-1.62,28.33,28.33,0,0,0,7.91-6.76,29.89,29.89,0,0,0,4.2-6.37,17.87,17.87,0,0,0,1.81-6.12,11.72,11.72,0,0,0-.64-5.37,12.29,12.29,0,0,0-3.79-4.87,12.8,12.8,0,0,0-6.89-3.18A11.49,11.49,0,0,0,479,124.2,26.87,26.87,0,0,0,472.3,130Z" transform="translate(-6.2 -17)"/><path class="cls-1" d="M515,184l-1.66-2a14,14,0,0,0,3.14-3.22,1.47,1.47,0,0,0-.22-1.16,42.86,42.86,0,0,0-4-5.48l-1.5-1.77-2.53,2.09q-5.42,4.44-7.49,6.37a10.93,10.93,0,0,0-2.25,2.45,1.4,1.4,0,0,0,.06.89A34.78,34.78,0,0,0,501.1,186l-1.8,1.48-7.17-9q-1.59-1.93-5.19-6l1.91-1.57a19.46,19.46,0,0,0,2.71,2.86.88.88,0,0,0,.53.14,3.61,3.61,0,0,0,1.45-.65c.39-.25,1.54-1.09,3.44-2.54s3.26-2.51,4.07-3.18l9.46-7.77c.21-.18,2.29-2,6.22-5.47A14.88,14.88,0,0,0,519,152a1.13,1.13,0,0,0,.2-.53,2.31,2.31,0,0,0-.29-.83A31.23,31.23,0,0,0,517,147.8l1.91-1.57,6.45,8.15,9.15,10.72a49.73,49.73,0,0,1,3.32,4.5l-.15.47q-1.5.83-3.66,2.31c-1.44,1-2.66,1.88-3.68,2.69l-1.53-1.86c.37-.3,1.15-1,2.37-2.14a6.56,6.56,0,0,0,1.1-1.12.56.56,0,0,0,.06-.39,7.4,7.4,0,0,0-1-2.32,25.7,25.7,0,0,0-2.57-3.67c-.21-.25-.81-.95-1.8-2.07s-1.68-1.9-2.05-2.3q-2.49,1.62-8.43,6.5l-3.19,2.62q2.19,3,3,4a19,19,0,0,0,3.29,3.45.94.94,0,0,0,.88,0,14.23,14.23,0,0,0,2.81-1.9l1.65,2Z" transform="translate(-6.2 -17)"/><path class="cls-1" d="M551.1,193.12l2.23-1.06,3.93,8.67,1.76,3.54,1.8,3.52.5,1-2.24,1.06c-.91-1.9-1.65-3-2.23-3.38a1.46,1.46,0,0,0-1.19-.09,50,50,0,0,0-7.44,3.11l-6.18,3-3.1,1.51q-4.87,2.34-6,3a9.78,9.78,0,0,0-3.43,3.18,7.8,7.8,0,0,0-1,4.29,14.38,14.38,0,0,0,1.6,5.77,13.15,13.15,0,0,0,4.08,5.31A8.19,8.19,0,0,0,539,237c1.65,0,4.36-.94,8.15-2.75l5.43-2.6,8.57-4.09a18.73,18.73,0,0,0,3.87-2.31,1.46,1.46,0,0,0,.35-.92,11.77,11.77,0,0,0-1.31-4.09l2.23-1.07q2.1,4.83,2.52,5.73l.36.7,3,5.75-2.24,1.06a7.84,7.84,0,0,0-1.87-2.89,1.76,1.76,0,0,0-1.06-.13,45.12,45.12,0,0,0-5.57,2.21c-3.26,1.4-5.81,2.55-7.66,3.43l-6.26,3a43,43,0,0,1-5.12,2,13,13,0,0,1-5,.7,12.59,12.59,0,0,1-4.69-1.38,14.67,14.67,0,0,1-4.37-3.46,24.66,24.66,0,0,1-3.64-5.7,27.79,27.79,0,0,1-2.5-8,13.32,13.32,0,0,1,.16-5.17,10.51,10.51,0,0,1,1.84-3.9,10.68,10.68,0,0,1,2.71-2.57c.6-.39,2.31-1.26,5.11-2.6l5.13-2.42,6.76-3.24c2.49-1.18,4.71-2.3,6.66-3.33a5.91,5.91,0,0,0,1.55-1.14,2.32,2.32,0,0,0,.37-1Z" transform="translate(-6.2 -17)"/><path class="cls-1" d="M537.52,260l2.33-.61a14.29,14.29,0,0,0,1.52,3.93,1.87,1.87,0,0,0,1.37.57,48.87,48.87,0,0,0,7.5-1.65l17.14-4.51c4.67-1.23,7.28-2,7.81-2.19l-1.07-4q-.79-3.06-1.61-5.32a2.47,2.47,0,0,0-.51-1,2,2,0,0,0-1.09-.08,28.49,28.49,0,0,0-4.57.75l-.61-2.33,6.55-1.86c.81-.27,1.69-.59,2.63-1l.35.18c.17.9.37,1.86.61,2.86q.58,2.45,2.4,9.36l3,11.41q1.88,7.11,2.56,9.5c.26.86.53,1.72.83,2.59l-.21.36c-1.2.15-2.24.32-3.12.52q-.24,0-6.27,1.53l-.61-2.32a33.51,33.51,0,0,0,4.14-1.49,2.93,2.93,0,0,0,1.13-.69,2.12,2.12,0,0,0,0-1q-.39-2.38-1.25-5.64l-1.07-4.06q-1,.18-7.86,2l-17.14,4.51a46.9,46.9,0,0,0-7.35,2.29,1.71,1.71,0,0,0-.88,1.14,13.57,13.57,0,0,0,.59,4.18l-2.32.62q-1.26-5.56-2.25-9.33Q539.1,265.16,537.52,260Z" transform="translate(-6.2 -17)"/><path class="cls-1" d="M544.32,283.6l2.46-.23a21.94,21.94,0,0,0,.57,2.79,2.11,2.11,0,0,0,.48.74,3.12,3.12,0,0,0,.95.57q.63.28,4.67,1.59l7.46,2.25,19.63,5.86,6.91,1.95.38,4.12-29.45,15.95-3.85,2.19-2.6,1.42a3.34,3.34,0,0,0-.71.62,2,2,0,0,0-.3.64,9.5,9.5,0,0,0,0,1.73c0,.3,0,.73,0,1.3l-2.47.23-.56-8.14-1.15-10.24,2.46-.23a17.53,17.53,0,0,0,.76,4,.9.9,0,0,0,.88.38,7.75,7.75,0,0,0,2.33-.9l6.2-3.1-1.41-15.1-3.62-.95a22.38,22.38,0,0,0-5.16-1,1.07,1.07,0,0,0-1,.56,12.37,12.37,0,0,0-.14,4.21l-2.46.23-.43-6.74ZM561.49,295q.12,2.76.44,6.24c.21,2.24.45,4.23.7,6l14.57-7.66Z" transform="translate(-6.2 -17)"/><path class="cls-1" d="M548.48,329.59l2.58.29a30.09,30.09,0,0,0-.2,3.4,2.11,2.11,0,0,0,.23.94,1.24,1.24,0,0,0,.59.48,17.53,17.53,0,0,0,4.05.78l5.83.77,13.75,1.56,5.8.55a18.49,18.49,0,0,0,4.17.16,1.21,1.21,0,0,0,.68-.33,2.09,2.09,0,0,0,.45-.84A27.73,27.73,0,0,0,587,334l2.59.3c-.5,3.17-.94,6.52-1.35,10.07q-.54,4.76-.75,8.45l-2.59-.29a36.79,36.79,0,0,0,.17-3.73,1.36,1.36,0,0,0-.34-.85,5.21,5.21,0,0,0-2-.58c-2-.4-4.82-.82-8.56-1.24l-3.37-.38q-.43,2.09-1.2,8.82c-.65,5.66-1,9.16-1,10.5l3.36.38c3,.34,5,.55,5.82.61,2.61.15,4.09.21,4.42.16a1.21,1.21,0,0,0,.58-.21,1.77,1.77,0,0,0,.4-.68,31.16,31.16,0,0,0,.67-3.7l2.59.29c-.41,2.43-.79,5.24-1.15,8.41-.41,3.54-.72,6.91-.95,10.12l-2.59-.3a31.24,31.24,0,0,0,.21-3.4,2.45,2.45,0,0,0-.24-.94,1.19,1.19,0,0,0-.59-.48,18.06,18.06,0,0,0-4-.78l-5.86-.77-13.75-1.57-5.77-.54a19,19,0,0,0-4.17-.18,1.48,1.48,0,0,0-.7.34,1.91,1.91,0,0,0-.45.85,29.6,29.6,0,0,0-.56,3.39l-2.59-.29q.74-4.77,1.34-10.07.54-4.76.76-8.46l2.59.29a31.55,31.55,0,0,0-.18,3.83,1.4,1.4,0,0,0,.33.87,5.43,5.43,0,0,0,2,.6q3,.46,8.63,1.11l6.15.7c.24-1,.63-3.8,1.16-8.5q.78-6.76,1-9c0-.61.07-1.21.06-1.81l-6.15-.7c-3-.34-5-.52-5.86-.53-2.63-.14-4.12-.19-4.48-.15a1,1,0,0,0-.55.22,1.49,1.49,0,0,0-.4.66,29.88,29.88,0,0,0-.67,3.63l-2.59-.3c.41-2.43.8-5.24,1.16-8.41Q548.13,334.39,548.48,329.59Z" transform="translate(-6.2 -17)"/><polygon class="cls-1" points="101.34 440.9 105.79 435.31 102.13 429.18 108.77 431.71 113.44 426.32 113.11 433.47 119.65 436.26 112.8 438.15 112.18 445.28 108.28 439.31 101.34 440.9"/><polygon class="cls-1" points="117.21 463.85 121.11 457.87 116.9 452.11 123.75 454.01 127.9 448.2 128.23 455.35 135.01 457.53 128.36 460.05 128.41 467.2 123.95 461.6 117.21 463.85"/><polygon class="cls-1" points="135.13 485.23 138.47 478.92 133.74 473.56 140.73 474.81 144.31 468.64 145.31 475.73 152.26 477.27 145.87 480.4 146.58 487.52 141.63 482.37 135.13 485.23"/><path class="cls-1" d="M190.1,534.16c3.82-5.31-19.6-14.32-19.6-14.32S186.29,539.47,190.1,534.16Z" transform="translate(-6.2 -17)"/><path class="cls-1" d="M89.76,402.72c6.07-2.36,8.69,22.74,8.69,22.74S83.69,405.05,89.76,402.72Z" transform="translate(-6.2 -17)"/><polygon class="cls-1" points="533.68 440.88 529.24 435.31 532.9 429.18 526.26 431.71 521.58 426.32 521.92 433.46 515.38 436.26 522.23 438.15 522.85 445.28 526.76 439.3 533.68 440.88"/><polygon class="cls-1" points="517.82 463.85 513.9 457.87 518.12 452.11 511.27 454.01 507.14 448.19 506.81 455.35 500.03 457.52 506.66 460.04 506.62 467.2 511.07 461.6 517.82 463.85"/><polygon class="cls-1" points="499.89 485.23 496.57 478.92 501.3 473.56 494.29 474.8 490.71 468.64 489.71 475.72 482.77 477.27 489.16 480.39 488.44 487.51 493.39 482.36 499.89 485.23"/><path class="cls-1" d="M457.32,534.16c-3.81-5.32,19.61-14.33,19.61-14.33S461.14,539.47,457.32,534.16Z" transform="translate(-6.2 -17)"/><path class="cls-1" d="M557.66,402.71c-6.06-2.35-8.67,22.75-8.67,22.75S563.75,405.05,557.66,402.71Z" transform="translate(-6.2 -17)"/><path class="cls-1" d="M229,572.17l.76-2.28,5.48,1.2a2.3,2.3,0,0,0,1.39-.08,3.05,3.05,0,0,0,1.1-1.33,79.58,79.58,0,0,0,3.62-9.6l2.24-6.72q1.16-3.48,2.43-7.53l.74-2.43a2.51,2.51,0,0,0,.21-1.21.52.52,0,0,0-.34-.39,6.36,6.36,0,0,0-1.41.06c-4.24.37-6.95.66-8.13.85l-.28-.32c.05-.39.15-1,.31-1.88.11-.65.2-1.26.26-1.82l.09-.19q5.52.21,8.82.21t10.38-.27l.48.63c-.1.29-.45,1.16-1.05,2.58s-1,2.33-1.11,2.74c-.59,1.61-2.06,5.75-4.38,12.41L249.2,561c-1.35,4-2.27,6.88-2.75,8.46a18.5,18.5,0,0,0-1,4.33,1.24,1.24,0,0,0,.38.74,13.84,13.84,0,0,0,3.87,1.86,13.52,13.52,0,0,1,1.76.77l-.76,2.28q-6-2.21-9.77-3.46Q238.31,575.06,229,572.17Z" transform="translate(-6.2 -17)"/><path class="cls-1" d="M294,568.36a16.37,16.37,0,0,1-3.19-2.91,8.34,8.34,0,0,1-1.44-3.09,11.44,11.44,0,0,1,2.16-9.67,11.07,11.07,0,0,1,4.83-3.4,15,15,0,0,1,6.87-.56c3.27.37,5.71,1.5,7.32,3.37a8.08,8.08,0,0,1,2,6.42,8.42,8.42,0,0,1-1.19,3.5,10.44,10.44,0,0,1-2.53,2.75A18.53,18.53,0,0,1,306,566.4a18.34,18.34,0,0,1,3.57,2.51,8.74,8.74,0,0,1,1.81,2.47,9.15,9.15,0,0,1,.82,2.84,14.32,14.32,0,0,1-2.92,10.4,13.1,13.1,0,0,1-6.43,4.2,15.38,15.38,0,0,1-6.36.43,13.46,13.46,0,0,1-5.56-1.71,11.39,11.39,0,0,1-2.77-2.43,10.31,10.31,0,0,1-1.9-3.41,10.1,10.1,0,0,1-.34-4.41,10.71,10.71,0,0,1,1-3.49,8.68,8.68,0,0,1,1.91-2.6,9.78,9.78,0,0,1,2.32-1.65C291.23,569.47,292.2,569.07,294,568.36Zm2.4,1.44a10.86,10.86,0,0,0-3.51,3.22,9.3,9.3,0,0,0-1.53,4.22,8.25,8.25,0,0,0,1.49,6.12,7.15,7.15,0,0,0,5.05,2.9,6.3,6.3,0,0,0,4.9-1.41,6.85,6.85,0,0,0,2.42-4.64,7.48,7.48,0,0,0-.34-3.6,7.11,7.11,0,0,0-2.19-2.84,41.18,41.18,0,0,0-5.53-3.55Zm6.77-4.8a7.93,7.93,0,0,0,2.94-2.57,7.82,7.82,0,0,0,1.37-3.64,6.24,6.24,0,0,0-1.21-4.81,6.35,6.35,0,0,0-4.44-2.26,5.65,5.65,0,0,0-4.26,1.07,5.2,5.2,0,0,0-2,3.64,5,5,0,0,0,.09,1.74,5.45,5.45,0,0,0,.68,1.66,6.9,6.9,0,0,0,1.28,1.55,15.65,15.65,0,0,0,2,1.52l2,1.24Z" transform="translate(-6.2 -17)"/><path class="cls-1" d="M346.54,573.62l-1.21-.49c0-1-.06-2.54-.23-4.46l-.34-4.72-.41-3.85-.47-3.22c-.17-1.44-.28-2.3-.33-2.57-.08-.51-.16-1-.26-1.49s-.21-1-.36-1.66l.35-.33q7.13-.55,12.28-1.11c1.32-.13,2.35-.25,3.12-.35l5.55-.77.32.45c0,2.17,0,3.57.11,4.21s.15,1.18.3,2l-.25.42c-.77,0-1.64.09-2.61.17-3.16.27-5.2.45-6.1.55-4.17.44-7.06.82-8.7,1.13l.86,9.32a22.17,22.17,0,0,1,4-2,15.55,15.55,0,0,1,3.67-.81q5.4-.57,8.8,2.08a10.51,10.51,0,0,1,3.93,7.58,14.46,14.46,0,0,1-1.42,7.82,16.15,16.15,0,0,1-6.24,6.7,18.07,18.07,0,0,1-8,2.61,16.78,16.78,0,0,1-3.34.08,20.55,20.55,0,0,1-3.55-.72c-.21-.85-.47-1.7-.76-2.56s-1-2.75-2.14-5.7L345,581a14.81,14.81,0,0,0,2.69,3.48,9.88,9.88,0,0,0,7.54,2.49,7,7,0,0,0,5.07-2.76,8.35,8.35,0,0,0,1.45-6.21,8.56,8.56,0,0,0-2.79-5.93,7.71,7.71,0,0,0-6-1.59,10.16,10.16,0,0,0-2.56.58,9.63,9.63,0,0,0-1.85.93A25.61,25.61,0,0,0,346.54,573.62Z" transform="translate(-6.2 -17)"/><path class="cls-1" d="M398.53,561.72a54.68,54.68,0,0,1-2.84-9,16.66,16.66,0,0,1-.32-5.33,14.31,14.31,0,0,1,1.22-4.54,11.09,11.09,0,0,1,2.61-3.44,12.82,12.82,0,0,1,3.91-2.42q4.51-1.85,7.83-.9a11.7,11.7,0,0,1,5.89,4.08,37.3,37.3,0,0,1,5.18,9.54,64.8,64.8,0,0,1,2.76,8.08,20.53,20.53,0,0,1,.72,6.45,14.51,14.51,0,0,1-1.1,4.91,10.89,10.89,0,0,1-2.47,3.5,13.39,13.39,0,0,1-4.2,2.54,12.72,12.72,0,0,1-5.93,1,10.42,10.42,0,0,1-5.21-2,16.2,16.2,0,0,1-4.35-5A55.17,55.17,0,0,1,398.53,561.72Zm5.15-6.52a94.31,94.31,0,0,0,5.13,10.86c1.76,3.14,3.32,5.05,4.67,5.76a4.42,4.42,0,0,0,3.83.33,4.57,4.57,0,0,0,2.73-3.76q.52-2.85-3-11.62a101,101,0,0,0-5.33-11.1,19,19,0,0,0-2.9-4.13,5.62,5.62,0,0,0-2.57-1.56,4.15,4.15,0,0,0-2.59.22,4.3,4.3,0,0,0-2.23,1.94,6.23,6.23,0,0,0-.5,3.7A37.18,37.18,0,0,0,403.68,555.2Z" transform="translate(-6.2 -17)"/><path class="cls-1" d="M207.77,285.41l2.81,3.38s5.23-11.52,14.17-18C224.75,270.84,213.28,277.61,207.77,285.41Z" transform="translate(-6.2 -17)"/><path class="cls-1" d="M211,289.3l2.81,3.39S219,281.17,228,274.75C228,274.75,216.5,281.5,211,289.3Z" transform="translate(-6.2 -17)"/><path class="cls-1" d="M214.2,293.21l2.8,3.38s5.24-11.53,14.17-17.95C231.17,278.64,219.69,285.41,214.2,293.21Z" transform="translate(-6.2 -17)"/><path class="cls-1" d="M217.4,297.11l2.82,3.37s5.22-11.51,14.17-17.94C234.39,282.54,222.91,289.3,217.4,297.11Z" transform="translate(-6.2 -17)"/><path class="cls-1" d="M220.63,301l2.81,3.38s5.22-11.53,14.16-17.95C237.6,286.44,226.13,293.21,220.63,301Z" transform="translate(-6.2 -17)"/><path class="cls-1" d="M223.84,304.9l2.79,3.39s5.23-11.54,14.17-18C240.8,290.34,229.33,297.11,223.84,304.9Z" transform="translate(-6.2 -17)"/><path class="cls-1" d="M227,308.8l2.82,3.38s5.22-11.52,14.15-17.94C244,294.24,232.55,301,227,308.8Z" transform="translate(-6.2 -17)"/><path class="cls-1" d="M230.26,312.7l3.14,4.44c-.76-2.25,4.88-12.58,13.84-19C247.24,298.13,235.77,304.9,230.26,312.7Z" transform="translate(-6.2 -17)"/><path class="cls-1" d="M210.82,294s4.35,5.47-2.87,16.51c0,0,5.84-2.19,9-10.9Z" transform="translate(-6.2 -17)"/><path class="cls-1" d="M216.71,298.93s-1.44,10.7-6,15.13c0,0,5.83-2.18,9-10.9Z" transform="translate(-6.2 -17)"/><path class="cls-1" d="M219.47,302.48s-1.46,10.71-6,15.13c0,0,5.84-2.18,9.06-10.89Z" transform="translate(-6.2 -17)"/><path class="cls-1" d="M222.21,306s-1.43,10.71-6,15.14c0,0,5.85-2.19,9.05-10.9Z" transform="translate(-6.2 -17)"/><path class="cls-1" d="M225,309.59s-2.13,11.73-6.71,16.17A22.15,22.15,0,0,0,228,313.83Z" transform="translate(-6.2 -17)"/><path class="cls-1" d="M227.72,313.14s-2.35,12.88-6.94,17.31a28.16,28.16,0,0,0,10-13.06Z" transform="translate(-6.2 -17)"/><path class="cls-1" d="M230.48,316.7s.67,10.2-9,20.87c0,0,11-6.87,12-16.63Z" transform="translate(-6.2 -17)"/><path class="cls-1" d="M446.55,285.41l-2.82,3.38s-5.22-11.52-14.16-18C429.57,270.84,441,277.61,446.55,285.41Z" transform="translate(-6.2 -17)"/><path class="cls-1" d="M443.33,289.3l-2.81,3.39s-5.2-11.52-14.15-17.94C426.37,274.75,437.82,281.5,443.33,289.3Z" transform="translate(-6.2 -17)"/><path class="cls-1" d="M440.12,293.21l-2.81,3.38s-5.21-11.53-14.15-17.95C423.16,278.64,434.62,285.41,440.12,293.21Z" transform="translate(-6.2 -17)"/><path class="cls-1" d="M436.92,297.11l-2.83,3.37s-5.21-11.51-14.16-17.94C419.93,282.54,431.41,289.3,436.92,297.11Z" transform="translate(-6.2 -17)"/><path class="cls-1" d="M433.7,301l-2.82,3.38s-5.2-11.53-14.15-17.95C416.73,286.44,428.2,293.21,433.7,301Z" transform="translate(-6.2 -17)"/><path class="cls-1" d="M430.49,304.9l-2.8,3.39s-5.23-11.54-14.17-18C413.52,290.34,425,297.11,430.49,304.9Z" transform="translate(-6.2 -17)"/><path class="cls-1" d="M427.28,308.8l-2.82,3.38s-5.22-11.52-14.16-17.94C410.3,294.24,421.76,301,427.28,308.8Z" transform="translate(-6.2 -17)"/><path class="cls-1" d="M424.06,312.7l-2.8,3.39s-5.23-11.53-14.16-18C407.1,298.13,418.57,304.9,424.06,312.7Z" transform="translate(-6.2 -17)"/><path class="cls-1" d="M442.6,294.18s-4.13,7.55,3.8,16.33c0,0-5.85-2.19-9.07-10.9Z" transform="translate(-6.2 -17)"/><path class="cls-1" d="M437.63,298.93s1.43,10.7,6,15.13c0,0-5.85-2.18-9.07-10.9Z" transform="translate(-6.2 -17)"/><path class="cls-1" d="M434.87,302.48s1.43,10.71,6,15.13c0,0-5.84-2.18-9.07-10.89Z" transform="translate(-6.2 -17)"/><path class="cls-1" d="M432.11,306s1.43,10.71,6,15.14c0,0-5.85-2.19-9.07-10.9Z" transform="translate(-6.2 -17)"/><path class="cls-1" d="M429.35,309.59s2.13,11.73,6.72,16.17a22.14,22.14,0,0,1-9.75-11.93Z" transform="translate(-6.2 -17)"/><path class="cls-1" d="M426.63,313.14S429,326,433.54,330.45a28.16,28.16,0,0,1-10-13.06Z" transform="translate(-6.2 -17)"/><path class="cls-1" d="M423.86,316.7s.48,12.76,8.1,21.11c0,0-10.86-7.14-11.13-16.87Z" transform="translate(-6.2 -17)"/><path class="cls-1" d="M258.87,267.9l-1.05.65a6.66,6.66,0,0,0-1.32-1.69.73.73,0,0,0-.57,0,21.15,21.15,0,0,0-2.89,1.57l-.94.6.82,1.34q1.76,2.85,2.54,4a4.85,4.85,0,0,0,1,1.22.6.6,0,0,0,.43,0,15.4,15.4,0,0,0,2-1l.58.94-4.78,2.82c-.68.42-1.75,1.12-3.19,2.09l-.61-1a8.91,8.91,0,0,0,1.53-1.1.37.37,0,0,0,.1-.24,1.59,1.59,0,0,0-.21-.73c-.09-.2-.42-.8-1-1.8s-1-1.7-1.24-2.13l-3.06-5-2.19-3.3a7.12,7.12,0,0,0-.94-1.23.48.48,0,0,0-.24-.13,1.17,1.17,0,0,0-.41.08,14.67,14.67,0,0,0-1.5.74l-.61-1,4.32-2.54,5.7-3.67a26.53,26.53,0,0,1,2.36-1.29l.22.1a19.89,19.89,0,0,0,.84,1.9c.37.75.72,1.39,1,1.92l-1,.61c-.12-.19-.4-.61-.86-1.25a3.06,3.06,0,0,0-.46-.6.25.25,0,0,0-.18-.05,3.61,3.61,0,0,0-1.17.33,12.57,12.57,0,0,0-1.91,1c-.13.07-.5.32-1.1.72s-1,.67-1.22.83a50,50,0,0,0,2.51,4.39l1,1.67c1.06-.58,1.76-1,2.12-1.19a9.5,9.5,0,0,0,1.87-1.35.48.48,0,0,0,.06-.42,6.87,6.87,0,0,0-.72-1.45l1-.65Z" transform="translate(-6.2 -17)"/><path class="cls-1" d="M264.89,272.37l-.34-.69a7.06,7.06,0,0,0,.88-1.33c-.12-.38-.36-1-.71-1.79-.64-1.49-1.12-2.56-1.44-3.22l-2.79-5.71c-.11-.22-.53-1-1.27-2.44a7.16,7.16,0,0,0-1-1.67.45.45,0,0,0-.28-.1,8.07,8.07,0,0,0-1.91.65l-.48-1,2.92-1.46,1.67-.82q1.74-.84,3.84-1.92l2.54-1.32,1.87-.85a2.21,2.21,0,0,1,.46-.12l.17.12.65,1.94c.06.13.31.76.77,1.88l-1,.49a12.65,12.65,0,0,0-1-1.79.61.61,0,0,0-.27-.18,3.51,3.51,0,0,0-1.12.3,23.8,23.8,0,0,0-2.52,1.06c-.75.36-1.5.77-2.26,1.21a34.25,34.25,0,0,0,1.6,3.73l1.27,2.61c.61-.23,1.22-.49,1.85-.79l2.08-1.08a2.61,2.61,0,0,0,.76-.49.48.48,0,0,0,.05-.35,6.67,6.67,0,0,0-.6-1.69l1-.5,1.3,2.82,1.42,2.76-1,.5a5.16,5.16,0,0,0-1.08-1.73.81.81,0,0,0-.71-.05,18.23,18.23,0,0,0-2.34,1,20.76,20.76,0,0,0-2,1.1l2.61,5.33a16.4,16.4,0,0,0,.81,1.51c.71-.27,1.53-.63,2.46-1.09s1.73-.88,2.47-1.31a5,5,0,0,0,1.3-.95.51.51,0,0,0,0-.31,14.68,14.68,0,0,0-.65-2.54l1.05-.52a44.5,44.5,0,0,0,1.73,4.27l-.08.25a25.09,25.09,0,0,1-2.26,1.21l-2.07,1-4.18,2Z" transform="translate(-6.2 -17)"/><path class="cls-1" d="M280.09,265.07l-.22-.62a7.9,7.9,0,0,0,.87-1.24,16.66,16.66,0,0,0-.46-1.63q-.63-2-2.45-7.09c-.32-.91-.84-2.33-1.55-4.25a16,16,0,0,0-1-2.51.49.49,0,0,0-.3-.21,6.62,6.62,0,0,0-2.12.42l-.4-1.1.62-.2,1.86-.59q.92-.3,2.25-.78c.89-.31,1.58-.57,2.08-.77,1.25-.52,2.08-.84,2.47-1a10.47,10.47,0,0,1,3.54-.75,3.5,3.5,0,0,1,3.44,2.43,4,4,0,0,1,.13,2.36,4.86,4.86,0,0,1-1.07,2.11,15.4,15.4,0,0,1-2.3,1.82,12.12,12.12,0,0,1,3.64-.43,3.85,3.85,0,0,1,2.05,1,4.87,4.87,0,0,1,1.38,2.06,5.15,5.15,0,0,1,.25,2.59,6.33,6.33,0,0,1-.86,2.36,7.62,7.62,0,0,1-1.69,2,9.11,9.11,0,0,1-2.83,1.5l-4.5,1.49C282.16,264.23,281.23,264.6,280.09,265.07Zm1.17-12.71.77-.27a10.13,10.13,0,0,0,1.62-.74,3.16,3.16,0,0,0,1.07-1,2.84,2.84,0,0,0,.41-1.37,4.14,4.14,0,0,0-.27-1.79,3.43,3.43,0,0,0-.95-1.5,2.33,2.33,0,0,0-1.31-.61,4.71,4.71,0,0,0-1.91.35,12.52,12.52,0,0,0-1.54.65c.19.66.43,1.41.72,2.24l.71,2.09Zm3.41,9.43a9.64,9.64,0,0,0,1.67-.49,3.66,3.66,0,0,0,2.26-2,4.65,4.65,0,0,0-.09-3.47,4.89,4.89,0,0,0-1.36-2.14,3.05,3.05,0,0,0-1.85-.76,6.59,6.59,0,0,0-2.53.49,5.61,5.61,0,0,0-1,.45l2.14,6,.59,1.57S284.58,261.61,284.67,261.79Z" transform="translate(-6.2 -17)"/><path class="cls-1" d="M297.52,255.14a2.1,2.1,0,0,1,1.66.23,2.13,2.13,0,0,1,1,1.35,2.08,2.08,0,0,1-.23,1.67,2.12,2.12,0,0,1-1.34,1,2.22,2.22,0,0,1-2.47-3.26A2.12,2.12,0,0,1,297.52,255.14Z" transform="translate(-6.2 -17)"/><path class="cls-1" d="M308.16,256.8l-.18-1.44,2.27-2.91c1.18-1.52,2-2.71,2.6-3.55a13.94,13.94,0,0,0,1.27-2.29,8.88,8.88,0,0,0,.55-1.85,5.79,5.79,0,0,0,0-1.61,3.4,3.4,0,0,0-1.12-2.36,3,3,0,0,0-2.34-.56,3.58,3.58,0,0,0-1.46.5,3.4,3.4,0,0,0-1.09,1.11c-.09.59-.19,1.35-.29,2.28l-1.1.13,0-3.23c0-.5,0-1,0-1.57a6,6,0,0,1,1.95-1.59,7.73,7.73,0,0,1,2.61-.76,7.11,7.11,0,0,1,3.45.26,4.45,4.45,0,0,1,2.14,1.66,5.29,5.29,0,0,1,.94,2.41,5.37,5.37,0,0,1,0,1.65,7.11,7.11,0,0,1-.62,1.84,11.48,11.48,0,0,1-1,1.84l-1.39,1.81-1.29,1.62c-.68.87-1.42,1.76-2.22,2.69l.07.18,2.46-.31c.37-.05,1.61-.22,3.7-.54.67-.1,1.49-.24,2.45-.42l.13.17c0,.83.05,1.48.11,2a6.92,6.92,0,0,0,.28,1.15l-.05.16-4.16.39-2,.2Z" transform="translate(-6.2 -17)"/><path class="cls-1" d="M324.76,245.88a8.37,8.37,0,0,1-1.68-1.2,4,4,0,0,1-.86-1.38,4.94,4.94,0,0,1-.33-1.84,5.13,5.13,0,0,1,.78-2.87,5.37,5.37,0,0,1,2.09-1.9A7.28,7.28,0,0,1,328,236a5.19,5.19,0,0,1,3.67,1.17,3.85,3.85,0,0,1,1.32,2.93,4.11,4.11,0,0,1-.36,1.72,5.07,5.07,0,0,1-1,1.46,9.68,9.68,0,0,1-1.27.94,8.33,8.33,0,0,1,1.83,1,4.22,4.22,0,0,1,1,1.07,4.37,4.37,0,0,1,.55,1.29,5.85,5.85,0,0,1,.19,1.54,6.19,6.19,0,0,1-3.75,5.94,7.34,7.34,0,0,1-3,.58,6.48,6.48,0,0,1-2.73-.48,5.39,5.39,0,0,1-1.46-1,5,5,0,0,1-1.1-1.51,5,5,0,0,1-.42-2.07,5.18,5.18,0,0,1,.26-1.72,3.91,3.91,0,0,1,.75-1.34,5,5,0,0,1,1-.92Zm1.22.54a5.13,5.13,0,0,0-1.49,1.73,4.5,4.5,0,0,0-.49,2.09,4,4,0,0,0,1.07,2.82,3.38,3.38,0,0,0,2.57,1.07,3,3,0,0,0,2.24-.95,3.25,3.25,0,0,0,.88-2.35,3.63,3.63,0,0,0-.37-1.68,3.39,3.39,0,0,0-1.2-1.22,20.14,20.14,0,0,0-2.83-1.36Zm2.9-2.67a3.91,3.91,0,0,0,1.25-1.4,3.78,3.78,0,0,0,.44-1.81,2.87,2.87,0,0,0-3.1-3,2.61,2.61,0,0,0-2,.75,2.62,2.62,0,0,0-.6,2.67,2.68,2.68,0,0,0,.43.74,3.1,3.1,0,0,0,.69.66,7,7,0,0,0,1,.6l1,.47Z" transform="translate(-6.2 -17)"/><path class="cls-1" d="M337.73,244.71l1.89.18,0-.49a2.51,2.51,0,0,1-.81-.16.32.32,0,0,1-.16-.23,8.82,8.82,0,0,1,.05-1.52L339,239c.07-.93.12-1.46.14-1.59l.83.06c.45,0,.83.08,1.14.13a.41.41,0,0,1,.19.06.63.63,0,0,1,0,.25,6.28,6.28,0,0,1,0,.87l.48,0c.08-.82.12-1.24.12-1.27,0-.18.06-.38.11-.62l-.05-.06-.54,0-2-.13-2.34-.18c-.95-.07-1.59-.12-1.92-.16l-.58-.06-.05,0c0,.2,0,.38,0,.55s0,.55-.08,1.35l.49,0a5.44,5.44,0,0,1,.15-.9.41.41,0,0,1,.09-.2s.09,0,.22,0c.32,0,.69,0,1.1,0l.83.07q0,.16-.09,1.59l-.26,3.48a9.71,9.71,0,0,1-.18,1.5.38.38,0,0,1-.19.22,2.86,2.86,0,0,1-.84,0l0,.48C336.55,244.63,337.18,244.67,337.73,244.71Z" transform="translate(-6.2 -17)"/><path class="cls-1" d="M341.8,245l.08-.51a5.38,5.38,0,0,0,.66.06.32.32,0,0,0,.19,0,.18.18,0,0,0,.1-.11,3.24,3.24,0,0,0,.19-.79l.19-1.14.41-2.7.14-1.13a3.63,3.63,0,0,0,.06-.82.3.3,0,0,0-.06-.14.4.4,0,0,0-.16-.09,4.69,4.69,0,0,0-.67-.14L343,237l2,.33c.62.09,1.18.17,1.66.22l-.07.51a5.09,5.09,0,0,0-.74-.06.21.21,0,0,0-.17.06.93.93,0,0,0-.13.39c-.09.39-.2.95-.31,1.69l-.09.66c.27.06.85.16,1.74.29,1.13.17,1.82.27,2.09.28l.1-.66c.09-.6.14-1,.16-1.15,0-.52.06-.81.05-.87a.34.34,0,0,0,0-.12.22.22,0,0,0-.13-.08,5.36,5.36,0,0,0-.72-.16l.08-.51c.48.09,1,.19,1.66.28s1.36.19,2,.26l-.07.52c-.37-.05-.59-.07-.67-.07a.69.69,0,0,0-.19,0,.27.27,0,0,0-.1.11,4.49,4.49,0,0,0-.18.8l-.2,1.14-.4,2.69-.15,1.14a3.58,3.58,0,0,0-.06.81.34.34,0,0,0,.06.15.65.65,0,0,0,.17.09,6.45,6.45,0,0,0,.66.14l-.08.51q-.93-.18-2-.33c-.63-.1-1.18-.17-1.67-.22l.08-.51a7.34,7.34,0,0,0,.75.06.34.34,0,0,0,.17-.06.93.93,0,0,0,.13-.39c.08-.39.18-1,.29-1.69l.18-1.21c-.19-.05-.75-.14-1.68-.29l-1.79-.25-.36,0-.18,1.2a11.09,11.09,0,0,0-.14,1.16,7.44,7.44,0,0,0-.06.88.2.2,0,0,0,0,.11l.13.08a4.94,4.94,0,0,0,.71.15l-.08.52c-.48-.1-1-.19-1.65-.29S342.43,245.11,341.8,245Z" transform="translate(-6.2 -17)"/><path class="cls-1" d="M357.33,258.89l.35-1.08,2.64.56a1,1,0,0,0,.67,0,1.44,1.44,0,0,0,.52-.64,44.88,44.88,0,0,0,1.68-4.6l1.05-3.22c.37-1.11.75-2.32,1.15-3.61l.34-1.17a1.1,1.1,0,0,0,.1-.57.26.26,0,0,0-.16-.19,3.68,3.68,0,0,0-.67,0c-2,.2-3.31.34-3.87.43l-.14-.15c0-.18.08-.49.16-.89s.1-.6.13-.87l0-.09c1.75.06,3.15.08,4.19.07s2.69-.05,4.94-.15l.22.29c0,.14-.21.56-.48,1.24s-.45,1.12-.52,1.32q-.42,1.16-2.06,5.94l-.65,2c-.63,1.94-1,3.29-1.25,4.06a9,9,0,0,0-.49,2.07.57.57,0,0,0,.18.35,6.25,6.25,0,0,0,1.83.87,8,8,0,0,1,.83.36l-.35,1.08c-1.91-.69-3.47-1.24-4.68-1.63Q361.8,260.25,357.33,258.89Z" transform="translate(-6.2 -17)"/><path class="cls-1" d="M375.62,255.63a7.45,7.45,0,0,1-1-1.8,3.82,3.82,0,0,1-.19-1.61,5,5,0,0,1,.49-1.81,5.12,5.12,0,0,1,1.93-2.26,5.38,5.38,0,0,1,2.7-.83,7.23,7.23,0,0,1,3.2.78,5.16,5.16,0,0,1,2.81,2.62,3.89,3.89,0,0,1-.05,3.22,4.05,4.05,0,0,1-1.07,1.4,5,5,0,0,1-1.56.87,8.09,8.09,0,0,1-1.56.31,8,8,0,0,1,1.25,1.67,4.33,4.33,0,0,1,.45,1.39A4.55,4.55,0,0,1,383,261a6.78,6.78,0,0,1-.49,1.46,6.2,6.2,0,0,1-5.94,3.77,7.33,7.33,0,0,1-2.94-.76,6.47,6.47,0,0,1-2.27-1.6,5.53,5.53,0,0,1-.89-1.52,5.22,5.22,0,0,1-.35-1.83,4.94,4.94,0,0,1,.51-2.06,5,5,0,0,1,1-1.44,4.14,4.14,0,0,1,1.26-.89,4.76,4.76,0,0,1,1.31-.4Zm.86,1a5.2,5.2,0,0,0-2.09.93,4.42,4.42,0,0,0-1.33,1.68,4,4,0,0,0-.24,3,3.38,3.38,0,0,0,1.86,2.07,3,3,0,0,0,2.44.1,3.23,3.23,0,0,0,1.79-1.75,3.47,3.47,0,0,0,.39-1.68,3.31,3.31,0,0,0-.57-1.61,19,19,0,0,0-2-2.44Zm3.77-1.17a3.83,3.83,0,0,0,1.72-.73,3.67,3.67,0,0,0,1.17-1.45,3,3,0,0,0,.18-2.36,3.09,3.09,0,0,0-1.68-1.69,2.68,2.68,0,0,0-2.1-.15,2.44,2.44,0,0,0-1.45,1.35,2.74,2.74,0,0,0-.22.8,2.55,2.55,0,0,0,.06.86,3.17,3.17,0,0,0,.35.89,6,6,0,0,0,.69,1l.72.87Z" transform="translate(-6.2 -17)"/><path class="cls-1" d="M386.07,262.19l-.32-.54c.3-.4.7-1,1.19-1.77l1.22-1.9.95-1.58.76-1.36c.35-.59.56-.95.62-1.07s.23-.43.33-.64.23-.45.35-.73l.23,0c1.92,1.23,3.58,2.27,5,3.13l1.29.77,2.34,1.3V258c-.63.83-1,1.37-1.18,1.63a8.49,8.49,0,0,0-.46.85l-.22.08-1-.69-2.49-1.56c-1.72-1-2.94-1.73-3.65-2.08l-2.37,3.79a11.21,11.21,0,0,1,2.13.39,7.85,7.85,0,0,1,1.63.75,5.65,5.65,0,0,1,2.76,3.35,5,5,0,0,1-.69,4,7,7,0,0,1-2.8,2.58,7.8,7.8,0,0,1-4.31.75,8.72,8.72,0,0,1-3.78-1.3,8.15,8.15,0,0,1-1.3-.94,9,9,0,0,1-1.15-1.3c.17-.38.32-.78.46-1.18s.42-1.33.85-2.78l1,.2a7.05,7.05,0,0,0,0,2.11,4.49,4.49,0,0,0,.74,1.79,4.58,4.58,0,0,0,1.4,1.34,3.3,3.3,0,0,0,2.72.4,4,4,0,0,0,2.35-2,4.11,4.11,0,0,0,.65-3.07,3.65,3.65,0,0,0-1.83-2.35,5.43,5.43,0,0,0-1.15-.52,4.46,4.46,0,0,0-1-.18A9.6,9.6,0,0,0,386.07,262.19Z" transform="translate(-6.2 -17)"/><path class="cls-1" d="M397.19,267.92a26.84,26.84,0,0,1,3-3.39,7.71,7.71,0,0,1,2.1-1.44,6.59,6.59,0,0,1,2.16-.62,5.33,5.33,0,0,1,2.05.2,6.48,6.48,0,0,1,1.95,1,5.75,5.75,0,0,1,2.3,3,5.55,5.55,0,0,1-.22,3.41,17.72,17.72,0,0,1-2.62,4.48,33.33,33.33,0,0,1-2.62,3.12,9.87,9.87,0,0,1-2.47,1.89,7,7,0,0,1-2.27.76,5.24,5.24,0,0,1-2-.14,6.26,6.26,0,0,1-2.07-1.08,6,6,0,0,1-1.88-2.17,5,5,0,0,1-.47-2.63,7.58,7.58,0,0,1,1-3A26,26,0,0,1,397.19,267.92Zm3.93.49a47.36,47.36,0,0,0-3.17,4.78,7,7,0,0,0-1.21,3.33,2.13,2.13,0,0,0,.81,1.65,2.21,2.21,0,0,0,2.22.19q1.29-.5,4-4.12a46.72,46.72,0,0,0,3.22-4.92,8.92,8.92,0,0,0,1-2.21,2.65,2.65,0,0,0,0-1.43,1.9,1.9,0,0,0-.73-1,2.08,2.08,0,0,0-1.34-.44,3,3,0,0,0-1.63.71A17.93,17.93,0,0,0,401.12,268.41Z" transform="translate(-6.2 -17)"/><polygon class="cls-1" points="411.3 308.61 410.96 303.11 442.05 265.17 441.51 271.59 411.57 308.61 411.3 308.61"/><polygon class="cls-1" points="229.12 306.87 230.86 302.86 198.38 263.43 198.91 269.85 228.85 306.87 229.12 306.87"/><path class="cls-1" d="M324.07,117c-115.16,0-208.51,93.36-208.51,208.51S208.91,534,324.07,534s208.52-93.36,208.52-208.52S439.23,117,324.07,117Zm0,414.53c-113.58,0-205.66-92.08-205.66-205.66s92.08-205.66,205.66-205.66,205.67,92.07,205.67,205.66S437.66,531.54,324.07,531.54Z" transform="translate(-6.2 -17)"/><path class="cls-1" d="M324.07,45.19c-155,0-280.69,125.67-280.69,280.69S169.05,606.57,324.07,606.57,604.76,480.9,604.76,325.88,479.1,45.19,324.07,45.19Zm0,558.71c-153.54,0-278-124.48-278-278s124.48-278,278-278,278,124.47,278,278S477.62,603.9,324.07,603.9Z" transform="translate(-6.2 -17)"/></svg>